<?xml version="1.0" standalone="no"?>
<!DOCTYPE svg PUBLIC "-//W3C//DTD SVG 1.1//EN" "http://www.w3.org/Graphics/SVG/1.1/DTD/svg11.dtd" >
<svg xmlns="http://www.w3.org/2000/svg">
<metadata>
Created by FontPrep 20130207 at Thu Jun 30 10:18:34 2016
 By Chameleon
Copyright (c) The Font Bureau, Inc., 2003. All rights reserved.
</metadata>
<defs>
<font id="4f70d5eff637ec86ecb23533eba2f01e" horiz-adv-x='1024' >
  <font-face 
    font-family="AntennaCond-Medium"
    font-weight="500"
    font-stretch="condensed"
    units-per-em="2048"
    panose-1="2 0 6 6 0 0 0 2 0 4"
    ascent="1638"
    descent="-410"
    x-height="1145"
    cap-height="1518"
    bbox="-72 -467.02 2750 1950"
    underline-thickness="102"
    underline-position="-102"
    unicode-range="U+0020-FB04"
  />
<missing-glyph horiz-adv-x="362" 
 />
    <glyph glyph-name="f_f" unicode="ff" horiz-adv-x="1296" 
d="M786 0v944h-342v-944h-229v944h-182v201h182v104q0 328 350 328h99v-201h-78q-84 0 -113 -36t-29 -115v-80h342v104q0 328 353 328q115 0 141 -2v-199h-123q-84 0 -113 -36t-28 -115v-80h264v-201h-264v-944h-230z" />
    <glyph glyph-name="fi" unicode="fi" horiz-adv-x="1134" 
d="M786 1272v246h230v-246h-230zM786 0v1145h230v-1145h-230zM33 944v201h182v104q0 328 350 328h99v-201h-78q-84 0 -113 -36t-29 -115v-80h220v-201h-220v-944h-229v944h-182z" />
    <glyph glyph-name="fl" unicode="fl" horiz-adv-x="1214" 
d="M1065 -2q-156 0 -217 62t-62 227v1288h230v-1260q0 -71 20 -93t109 -21v-201q-10 -2 -80 -2zM33 944v201h182v104q0 328 350 328h99v-201h-78q-84 0 -113 -36t-29 -115v-80h220v-201h-220v-944h-229v944h-182z" />
    <glyph glyph-name="f_f_i" unicode="ffi" horiz-adv-x="1705" 
d="M1358 1272v246h231v-246h-231zM1360 0v1145h229v-1145h-229zM786 0v944h-342v-944h-229v944h-182v201h182v104q0 328 350 328h99v-201h-78q-84 0 -113 -36t-29 -115v-80h342v104q0 328 353 328h96v-201h-78q-84 0 -113 -36t-28 -115v-80h219v-201h-219v-944h-230z" />
    <glyph glyph-name="f_f_l" unicode="ffl" horiz-adv-x="1787" 
d="M1636 -2q-154 0 -215 62t-61 227v1288h229v-1260q1 -71 21 -93t108 -21v-201q-10 -2 -82 -2zM786 0v944h-342v-944h-229v944h-182v201h182v104q0 328 350 328h99v-201h-78q-84 0 -113 -36t-29 -115v-80h342v104q0 328 353 328h96v-201h-78q-84 0 -113 -36t-28 -115v-80
h219v-201h-219v-944h-230z" />
    <glyph glyph-name="f_j" unicode="fj" horiz-adv-x="1134" 
d="M786 1272v246h230v-246h-230zM674 -324v187h18q59 0 77 26q17 27 17 103v1153h230v-1161q0 -172 -65 -240t-242 -68h-35zM33 944v201h182v104q0 328 350 328h99v-201h-78q-84 0 -113 -36t-29 -115v-80h220v-201h-220v-944h-229v944h-182z" />
    <glyph glyph-name=".notdef" horiz-adv-x="362" 
 />
    <glyph glyph-name=".null" horiz-adv-x="0" 
 />
    <glyph glyph-name="nonmarkingreturn" horiz-adv-x="681" 
 />
    <glyph glyph-name="space" unicode=" " horiz-adv-x="362" 
 />
    <glyph glyph-name="exclam" unicode="!" horiz-adv-x="653" 
d="M223 444l-20 1074h250l-23 -1074h-207zM190 0v289h271v-289h-271z" />
    <glyph glyph-name="quotedbl" unicode="&#x22;" horiz-adv-x="925" 
d="M553 868l-12 650h237l-14 -650h-211zM160 868l-10 650h235l-10 -650h-215z" />
    <glyph glyph-name="numbersign" unicode="#" horiz-adv-x="1249" 
d="M487 618h232l39 246h-234zM92 424v211h199l31 215h-230v209h262l68 459h219l-70 -459h199l68 459h217l-70 -459h170v-209h-201l-32 -215h233v-211h-266l-64 -424h-215l64 424h-199l-63 -424h-217l63 424h-166z" />
    <glyph glyph-name="dollar" unicode="$" horiz-adv-x="1118" 
d="M457 -188v188q-225 16 -385 129l108 172q166 -111 373 -111q135 0 191 56t56 160t-58 158q-60 54 -166 96t-133 51q-26 10 -83 38q-58 28 -80 46q-90 72 -108 114q-43 99 -43 201q0 358 326 401v175h221v-173q166 -20 295 -88l-105 -184q-128 70 -272 70t-192 -50
q-48 -51 -48 -141t56 -139t168 -91q110 -42 155 -62t111 -59q66 -40 98 -82q84 -108 84 -279q0 -172 -82 -276t-268 -128v-192h-219z" />
    <glyph glyph-name="percent" unicode="%" horiz-adv-x="2000" 
d="M557 0l676 1518h215l-678 -1518h-213zM1405 470q0 -174 38 -242t127 -68t128 68t39 242q0 173 -39 242q-39 68 -128 68t-127 -68t-38 -242zM1569 -14q-190 0 -280 112q-89 113 -89 377t90 378t280 114t279 -114q90 -114 90 -378q0 -265 -90 -377t-280 -112zM432 727
q90 0 127 68q37 67 37 241t-37 243t-127 69t-127 -69t-37 -243t37 -242t127 -67zM803 1042q1 -264 -91 -376t-281 -113q-189 0 -279 113q-90 112 -90 376t90 377t279 113t281 -113t91 -377z" />
    <glyph glyph-name="ampersand" unicode="&#x26;" horiz-adv-x="1400" 
d="M463 1200q0 -115 86 -250q164 117 164 250q0 72 -28 109q-27 37 -97 37t-98 -36t-27 -110zM297 422q0 -114 50 -178t216 -64t275 90l-242 283q-49 57 -123 145q-176 -135 -176 -276zM559 -14q-260 0 -376 106t-115 320q0 154 75 254q76 100 215 188q-117 176 -116 346
q0 344 346 344q336 0 336 -344q0 -129 -70 -223t-190 -178l297 -346q51 127 98 493l203 -24q-55 -449 -154 -637l246 -285h-285l-98 113q-152 -127 -412 -127z" />
    <glyph glyph-name="quotesingle" unicode="'" horiz-adv-x="534" 
d="M160 868l-10 650h237l-12 -650h-215z" />
    <glyph glyph-name="parenleft" unicode="(" horiz-adv-x="847" 
d="M520 -358q-139 139 -242 389q-104 249 -104 579t106 593q105 263 240 399l170 -109q-283 -340 -282 -870q0 -305 85 -525t197 -348z" />
    <glyph glyph-name="parenright" unicode=")" horiz-adv-x="847" 
d="M328 -358l-168 108q281 348 280 873q0 305 -84 524t-196 346l168 109q141 -140 243 -390q103 -250 103 -580t-106 -593q-106 -262 -240 -397z" />
    <glyph glyph-name="asterisk" unicode="*" horiz-adv-x="1017" 
d="M414 584l22 327l-248 -178l-100 168l281 150l-281 153l98 164l250 -178l-22 330h184l-18 -334l249 184l101 -164l-283 -155l283 -152l-99 -164l-251 178l18 -329h-184z" />
    <glyph glyph-name="plus" unicode="+" horiz-adv-x="1187" 
d="M485 242v379h-317v200h317v377h217v-377h318v-200h-318v-379h-217z" />
    <glyph glyph-name="comma" unicode="," horiz-adv-x="471" 
d="M223 0h-123v293h271v-273q0 -113 -38 -168t-167 -118l-66 119q82 43 103 67q20 25 20 80z" />
    <glyph glyph-name="hyphen" unicode="-" horiz-adv-x="718" 
d="M72 551v211h573v-211h-573z" />
    <glyph glyph-name="hyphen" unicode="&#xad;" horiz-adv-x="718" 
d="M72 551v211h573v-211h-573z" />
    <glyph glyph-name="period" unicode="." horiz-adv-x="471" 
d="M100 0v293h271v-293h-271z" />
    <glyph glyph-name="slash" unicode="/" horiz-adv-x="917" 
d="M0 0l686 1518h232l-687 -1518h-231z" />
    <glyph glyph-name="zero" unicode="0" horiz-adv-x="1241" 
d="M623 197q164 -1 218 121t54 438t-55 436q-55 121 -219 121q-165 0 -219 -120t-54 -436t55 -439q56 -121 220 -121zM113 757q0 165 10 277q23 260 136 380t364 120q160 0 262 -48q180 -85 225 -392q18 -132 18 -318t-10 -300q-23 -261 -135 -377q-112 -115 -363 -115
q-250 0 -367 124q-103 107 -129 371q-11 113 -11 278z" />
    <glyph glyph-name="one" unicode="1" horiz-adv-x="667" 
d="M264 0v1307h-217v211h447v-1518h-230z" />
    <glyph glyph-name="two" unicode="2" horiz-adv-x="1042" 
d="M63 0v184l351 414q182 215 230 309q48 95 48 205t-48 158t-188 47q-140 0 -282 -72l-100 193q188 96 422 96t331 -94t97 -278t-62 -305q-62 -122 -284 -384l-228 -270h594v-203h-881z" />
    <glyph glyph-name="three" unicode="3" horiz-adv-x="1042" 
d="M950 442q0 -252 -112 -355t-360 -103q-247 0 -425 100l105 188q154 -80 302 -80t205 59q56 59 56 201t-52 198t-216 57h-191v202h199q129 0 177 50t48 162t-50 154t-184 42t-280 -70l-96 187q176 100 408 100t330 -77q99 -77 99 -288q-1 -151 -35 -229t-116 -111
q108 -33 148 -115t40 -272z" />
    <glyph glyph-name="four" unicode="4" horiz-adv-x="1146" 
d="M68 330v180l530 1008h242l-527 -996h375l47 453h166v-453h197v-192h-197v-330h-215v330h-618z" />
    <glyph glyph-name="five" unicode="5" horiz-adv-x="1085" 
d="M520 -16q-272 0 -461 102l105 188q154 -82 322 -82t229 63t61 243t-58 239t-196 59t-229 -71l-178 51l39 742h780v-211h-586l-18 -365q94 64 292 64t292 -109t94 -408t-125 -407q-66 -54 -150 -76t-213 -22z" />
    <glyph glyph-name="six" unicode="6" horiz-adv-x="1177" 
d="M608 186q154 0 206 80t52 251t-53 244t-190 73q-279 0 -279 -297q0 -193 55 -272t209 -79zM915 1518v-211h-149q-262 0 -344 -109q-44 -56 -60 -118t-22 -165q90 115 344 115t337 -140q42 -71 58 -156t17 -208q0 -286 -105 -414t-367 -128t-384 107q-102 89 -124 310
q-28 284 7 617q16 153 83 277q34 61 83 99q116 89 279 111q91 12 210 13h137z" />
    <glyph glyph-name="seven" unicode="7" horiz-adv-x="944" 
d="M39 1307v211h872v-183l-446 -1335h-246l443 1307h-623z" />
    <glyph glyph-name="eight" unicode="8" horiz-adv-x="1181" 
d="M592 915q129 1 178 53t49 157t-49 157t-178 51q-129 0 -179 -51q-51 -52 -51 -156t50 -158t180 -53zM592 184q154 0 209 69t55 204t-55 201t-210 67q-155 0 -209 -66q-54 -65 -54 -201t55 -205t209 -69zM592 -16q-314 0 -414 138q-49 70 -66 140t-18 196t25 202
q26 77 68 115t110 61q-98 42 -129 120t-31 184q-1 106 19 166q47 149 208 199q93 29 229 29q272 0 362 -106q89 -106 89 -249t-32 -224t-129 -119q138 -45 177 -159q28 -86 29 -215q1 -130 -17 -201q-45 -184 -219 -243q-103 -34 -261 -34z" />
    <glyph glyph-name="nine" unicode="9" horiz-adv-x="1177" 
d="M555 676q279 0 279 301q0 190 -56 269t-208 79q-154 0 -206 -80t-52 -252q0 -173 52 -245q54 -72 191 -72zM260 0v203h152q260 0 342 107q43 56 59 120t23 166q-86 -115 -341 -115t-338 141q-43 72 -59 156t-16 207q0 285 105 417t368 132t375 -100t134 -319
q9 -91 9 -221q0 -409 -51 -560t-135 -212q-121 -89 -280 -110q-91 -12 -208 -12h-139z" />
    <glyph glyph-name="colon" unicode=":" horiz-adv-x="503" 
d="M117 858v287h268v-287h-268zM117 0v287h268v-287h-268z" />
    <glyph glyph-name="semicolon" unicode=";" horiz-adv-x="503" 
d="M117 0v287h268v-267q0 -113 -37 -169t-166 -117l-65 119q82 43 102 67t21 80h-123zM117 858v287h268v-287h-268z" />
    <glyph glyph-name="less" unicode="&#x3c;" horiz-adv-x="1185" 
d="M940 199l-762 428v164l762 428v-222l-526 -286l526 -289v-223z" />
    <glyph glyph-name="equal" unicode="=" horiz-adv-x="1187" 
d="M172 819v211h846v-211h-846zM172 391v213h846v-213h-846z" />
    <glyph glyph-name="greater" unicode="&#x3e;" horiz-adv-x="1187" 
d="M244 199v221l526 287l-526 290v222l764 -428v-164z" />
    <glyph glyph-name="question" unicode="?" horiz-adv-x="1095" 
d="M373 0v262h268v-262h-268zM750 1149q0 80 -48 126t-190 46q-144 0 -291 -76l-102 195q197 94 436 94t331 -91t93 -243q0 -152 -44 -228t-156 -182q-111 -106 -137 -162t-21 -202h-226q-2 176 31 254q32 78 146 186t146 155q32 48 32 128z" />
    <glyph glyph-name="at" unicode="@" horiz-adv-x="1738" 
d="M1049 576q0 208 -40 284t-169 76t-167 -82t-38 -261t38 -263t156 -84t169 61t51 269zM870 -338q-410 0 -590 215t-182 719q0 504 182 720t590 216t589 -216t181 -720q0 -297 -59 -413t-238 -115q-213 0 -243 135q-74 -133 -326 -133q-174 0 -250 96q-75 96 -90 266
q-6 70 -6 165q0 308 91 419q91 112 259 110q128 0 190 -24t97 -82l37 100l151 -14v-696q3 -125 21 -164t95 -39t104 74t26 315q0 442 -147 624q-146 182 -482 181q-336 0 -482 -180q-146 -181 -146 -625t146 -624t482 -179q240 0 478 94l51 -120q-253 -105 -529 -105z" />
    <glyph glyph-name="A" unicode="A" horiz-adv-x="1263" 
d="M416 504h422l-209 696zM37 0l469 1528h252l469 -1528h-244l-86 289h-541l-84 -289h-235z" />
    <glyph glyph-name="B" unicode="B" horiz-adv-x="1198" 
d="M362 883h265q117 0 172 49t55 167t-55 165t-172 47h-265v-428zM362 203h281q119 0 179 52t60 182q0 131 -60 183t-179 52h-281v-469zM129 0v1518h506q237 0 347 -94t110 -291q0 -268 -189 -336q111 -35 165 -124t54 -253q0 -224 -122 -322t-353 -98h-518z" />
    <glyph glyph-name="C" unicode="C" horiz-adv-x="1095" 
d="M635 -16q-336 0 -458 211q-114 195 -114 543q1 170 15 282q33 251 163 382q131 132 410 132q231 0 383 -100l-127 -197q-102 66 -262 66q-193 0 -267 -125t-75 -426q0 -301 74 -428t270 -127q160 0 285 79l117 -182q-170 -110 -414 -110z" />
    <glyph glyph-name="D" unicode="D" horiz-adv-x="1255" 
d="M367 207h219q213 0 290 123q76 123 76 427t-75 424q-76 120 -291 119h-219v-1093zM129 0v1518h442q349 0 485 -174t136 -588t-133 -585t-492 -171h-438z" />
    <glyph glyph-name="E" unicode="E" horiz-adv-x="1087" 
d="M129 0v1518h866v-218h-635v-409h605v-217h-605v-461h639v-213h-870z" />
    <glyph glyph-name="F" unicode="F" horiz-adv-x="1050" 
d="M129 0v1518h868v-218h-630v-428h598v-215h-598v-657h-238z" />
    <glyph glyph-name="G" unicode="G" horiz-adv-x="1208" 
d="M1145 655q1 -387 -105 -529t-419 -142t-436 187q-122 187 -122 597q1 410 135 588t464 178q244 0 411 -109l-125 -194q-130 76 -276 76t-218 -44q-152 -93 -153 -509q0 -322 74 -445t254 -123t234 89t55 341v48h-338v206h565v-215z" />
    <glyph glyph-name="H" unicode="H" horiz-adv-x="1320" 
d="M166 0v1518h237v-615h588v615h238v-1518h-238v670h-588v-670h-237z" />
    <glyph glyph-name="I" unicode="I" horiz-adv-x="524" 
d="M143 0v1518h238v-1518h-238z" />
    <glyph glyph-name="J" unicode="J" horiz-adv-x="749" 
d="M51 0v213h144q109 0 153 44t43 140v1121h238v-1135q-1 -207 -101 -295t-297 -88h-180z" />
    <glyph glyph-name="K" unicode="K" horiz-adv-x="1232" 
d="M129 0v1518h236v-691l538 691h273l-461 -580l473 -938h-262l-371 743l-190 -251v-492h-236z" />
    <glyph glyph-name="L" unicode="L" horiz-adv-x="1007" 
d="M129 0v1518h238v-1305h610v-213h-848z" />
    <glyph glyph-name="M" unicode="M" horiz-adv-x="1560" 
d="M129 0v1518h301l350 -1110l353 1110h301v-1518h-234v1075l-344 -1075h-170l-346 1077v-1077h-211z" />
    <glyph glyph-name="N" unicode="N" horiz-adv-x="1314" 
d="M129 0v1518h254l578 -1043v1043h227v-1518h-219l-615 1100v-1100h-225z" />
    <glyph glyph-name="O" unicode="O" horiz-adv-x="1312" 
d="M919 296q67 77 85 272q6 75 6 236q0 296 -90 399q-90 104 -263 104q-263 0 -321 -223q-33 -127 -33 -284t6 -232q7 -76 27 -152t58 -120q86 -101 262 -101t263 101zM657 -16q-153 0 -263 42t-172 108t-99 172q-37 104 -48 208q-45 426 48 696q37 106 99 173t173 109
t263 42t261 -42q110 -42 172 -109t99 -173t48 -210t11 -242t-11 -242t-48 -210t-99 -172t-172 -108t-262 -42z" />
    <glyph glyph-name="P" unicode="P" horiz-adv-x="1196" 
d="M362 762h295q127 0 186 62q58 62 58 210t-57 208q-57 62 -187 63h-295v-543zM129 0v1518h537q244 0 356 -117t111 -354q0 -498 -471 -498h-300v-549h-233z" />
    <glyph glyph-name="Q" unicode="Q" horiz-adv-x="1312" 
d="M919 296q67 77 85 272q6 75 6 236q0 296 -90 399q-90 104 -263 104q-263 0 -321 -223q-33 -127 -33 -284t6 -232q7 -76 27 -152t58 -120q86 -101 262 -101t263 101zM860 -356q-182 0 -272 72t-88 231v57q-310 50 -391 348q-44 156 -45 351q-1 194 11 297q11 104 48 210
t99 173t173 109t263 42t261 -42q110 -42 172 -109t99 -173t48 -210t11 -238q0 -136 -10 -234t-42 -199t-87 -167q-56 -66 -152 -112t-227 -54v-8q0 -80 35 -112t121 -32h137v-200h-164z" />
    <glyph glyph-name="R" unicode="R" horiz-adv-x="1216" 
d="M362 772h293q127 0 183 62t57 205q0 145 -56 205t-184 61h-293v-533zM362 559v-559h-233v1518h533q244 0 356 -115t110 -348q0 -379 -278 -469l262 -586h-248l-248 559h-254z" />
    <glyph glyph-name="S" unicode="S" horiz-adv-x="1132" 
d="M569 -16q-324 0 -520 127l119 182q172 -104 395 -105q270 0 271 205q0 113 -65 164t-269 129t-298 172q-93 94 -93 278q-1 184 123 290q124 108 362 108t416 -86l-103 -203q-139 68 -315 68q-250 0 -250 -183q0 -92 52 -137t216 -110q266 -103 360 -195t95 -290
q0 -198 -125 -306t-371 -108z" />
    <glyph glyph-name="T" unicode="T" horiz-adv-x="1142" 
d="M451 0v1300h-420v218h1081v-218h-422v-1300h-239z" />
    <glyph glyph-name="U" unicode="U" horiz-adv-x="1308" 
d="M656 -20q-296 0 -416 132t-121 402v1004h237v-983q0 -181 64 -261t237 -80q174 0 239 80q65 78 65 261v983h229v-1004q0 -272 -119 -403t-415 -131z" />
    <glyph glyph-name="V" unicode="V" horiz-adv-x="1251" 
d="M500 -10l-463 1528h242l352 -1180l346 1180h240l-465 -1528h-252z" />
    <glyph glyph-name="W" unicode="W" horiz-adv-x="1787" 
d="M406 -10l-355 1528h242l246 -1078l258 1078h209l260 -1078l245 1078h226l-353 -1528h-233l-256 1048l-256 -1048h-233z" />
    <glyph glyph-name="X" unicode="X" horiz-adv-x="1239" 
d="M930 0l-324 584l-305 -584h-256l442 797l-399 721h260l281 -508l264 508h256l-401 -723l442 -795h-260z" />
    <glyph glyph-name="Y" unicode="Y" horiz-adv-x="1204" 
d="M483 0v537l-475 981h252l344 -725l346 725h244l-475 -981v-537h-236z" />
    <glyph glyph-name="Z" unicode="Z" horiz-adv-x="1110" 
d="M59 0v182l686 1118h-657v218h940v-197l-684 -1108h703v-213h-988z" />
    <glyph glyph-name="bracketleft" unicode="[" horiz-adv-x="839" 
d="M188 -324v1899h500v-199h-266v-1509h272v-191h-506z" />
    <glyph glyph-name="backslash" unicode="\" horiz-adv-x="917" 
d="M686 0l-686 1518h231l687 -1518h-232z" />
    <glyph glyph-name="bracketright" unicode="]" horiz-adv-x="839" 
d="M152 -324v191h268v1509h-266v199h499v-1899h-501z" />
    <glyph glyph-name="asciicircum" unicode="^" 
d="M154 1202l227 346h215l227 -346h-188l-150 187l-149 -187h-182z" />
    <glyph glyph-name="underscore" unicode="_" horiz-adv-x="749" 
d="M-61 -272v174h872v-174h-872z" />
    <glyph glyph-name="grave" unicode="`" 
d="M438 1260l-282 346h258l225 -346h-201z" />
    <glyph glyph-name="a" unicode="a" horiz-adv-x="1067" 
d="M466 178q102 0 165 58t63 204v140h-43q-211 0 -291 -40t-80 -158t43 -162q41 -42 143 -42zM428 -12q-213 0 -290 90t-77 266q1 238 139 329t449 91h45q-4 104 -42 149t-144 45q-162 0 -285 -61l-94 186q158 84 392 84q233 0 315 -90t82 -309v-463q0 -66 14 -85t72 -19
v-201q-22 -2 -92 -2t-117 22t-66 80q-88 -112 -301 -112z" />
    <glyph glyph-name="b" unicode="b" horiz-adv-x="1107" 
d="M811 566q0 198 -43 291t-180 93q-186 0 -226 -151q-22 -83 -22 -198q0 -114 4 -164q11 -132 64 -192q53 -59 184 -59t175 92q44 90 44 288zM111 1575h227v-531q80 121 324 121q190 0 281 -116q77 -98 92 -291q7 -76 7 -197q0 -250 -65 -397q-79 -178 -324 -178
q-151 0 -219 28t-121 88l-34 -110l-168 14v1569z" />
    <glyph glyph-name="c" unicode="c" horiz-adv-x="878" 
d="M534 -16q-282 0 -375 153t-93 445t98 438t371 145q170 0 292 -59l-100 -199q-80 43 -182 43q-141 0 -193 -89t-53 -293q0 -204 52 -294t198 -90q94 0 205 52l88 -177q-158 -75 -308 -75z" />
    <glyph glyph-name="d" unicode="d" horiz-adv-x="1107" 
d="M520 186q188 0 228 152q22 83 22 258q0 174 -47 265t-193 91t-189 -92q-44 -92 -44 -290t43 -291t180 -93zM446 -14q-187 0 -279 115q-99 124 -99 433q0 179 13 272t52 181q79 178 324 178q129 1 199 -25t114 -81v516h229v-1567l-184 -14l-18 117q-89 -125 -351 -125z
" />
    <glyph glyph-name="e" unicode="e" horiz-adv-x="1003" 
d="M725 666q-1 202 -49 250q-48 47 -166 47t-167 -72q-50 -72 -56 -225h438zM524 -14q-279 0 -373 159q-49 83 -67 183t-18 245t20 247q68 346 418 345q112 0 177 -15q178 -41 225 -223q30 -116 30 -241v-221h-649q8 -151 60 -217t198 -66t284 68l89 -176q-163 -88 -394 -88
z" />
    <glyph glyph-name="f" unicode="f" horiz-adv-x="722" 
d="M33 944v201h182v104q0 328 350 328q117 0 142 -2v-199h-121q-84 0 -113 -36t-29 -115v-80h263v-201h-263v-944h-229v944h-182z" />
    <glyph glyph-name="g" unicode="g" horiz-adv-x="1050" 
d="M509 967q-101 0 -149 -45q-48 -46 -49 -144q1 -98 49 -143t149 -45t148 45t48 143t-47 144t-149 45zM758 -16q0 82 -49 110t-195 27q-146 0 -200 -35q-56 -35 -56 -115q0 -79 52 -109t200 -30t198 35t50 117zM508 408q-88 0 -141 10q-29 -83 26 -108q35 -15 131 -15
q270 -1 368 -63t97 -237q0 -175 -115 -256q-116 -81 -370 -81t-364 59t-109 217q0 215 198 267q-66 45 -65 147q0 72 43 133q-121 88 -121 295t106 299t316 92q23 0 80 -4l391 68v-180h-164q115 -78 115 -275q0 -196 -108 -282t-314 -86z" />
    <glyph glyph-name="h" unicode="h" horiz-adv-x="1091" 
d="M111 0v1575h227v-524q76 115 302 115t292 -120q57 -104 57 -301v-745h-229v692q0 138 -35 196t-164 58t-175 -74t-46 -262v-610h-229z" />
    <glyph glyph-name="i" unicode="i" horiz-adv-x="464" 
d="M117 1272v248h231v-248h-231zM117 0v1145h229v-1145h-229z" />
    <glyph glyph-name="j" unicode="j" horiz-adv-x="464" 
d="M117 1272v248h231v-248h-231zM4 -324v187h19q59 1 76 27t18 102v1153h229v-1161q0 -174 -63 -241t-244 -67h-35z" />
    <glyph glyph-name="k" unicode="k" horiz-adv-x="991" 
d="M111 0v1575h223v-961l366 531h248l-344 -483l369 -662h-244l-274 477l-121 -176v-301h-223z" />
    <glyph glyph-name="l" unicode="l" horiz-adv-x="546" 
d="M395 -2q-156 0 -217 62t-61 227v1288h229v-1260q0 -71 20 -93t111 -21v-201q-12 -2 -82 -2z" />
    <glyph glyph-name="m" unicode="m" horiz-adv-x="1683" 
d="M111 0v1130l182 17l18 -105q78 123 336 123q137 0 195 -31q57 -32 80 -96q84 127 354 127q212 0 271 -119q32 -62 41 -128t9 -173v-745h-229v692q0 142 -30 198t-156 56t-171 -74q-44 -74 -44 -262v-610h-228v692q0 143 -29 199q-30 55 -158 55t-172 -75t-44 -261v-610
h-225z" />
    <glyph glyph-name="n" unicode="n" horiz-adv-x="1091" 
d="M111 0v1130l182 17l18 -105q86 123 346 123q210 0 275 -119q57 -104 57 -301v-745h-229v692q0 138 -35 196t-165 58t-175 -76t-45 -260v-610h-229z" />
    <glyph glyph-name="o" unicode="o" horiz-adv-x="1077" 
d="M780 567q0 97 -7 157q-18 153 -104 200q-50 26 -129 26t-129 -26q-90 -47 -107 -200q-7 -60 -7 -156t7 -156q7 -61 32 -118q49 -110 186 -110t198 72q60 72 60 311zM540 -16q-142 0 -238 42q-170 74 -217 308q-19 100 -19 240t19 240t69 183q99 168 385 168t385 -169
q49 -85 68 -183q20 -97 20 -239t-20 -241q-46 -237 -214 -308q-96 -41 -238 -41z" />
    <glyph glyph-name="p" unicode="p" horiz-adv-x="1107" 
d="M600 186q80 0 131 50t65 124q14 76 15 215q0 235 -57 305t-166 70q-186 0 -226 -151q-22 -83 -22 -198q0 -114 4 -164t18 -103t40 -82q26 -30 72 -48t126 -18zM111 -324v1454l182 17l16 -107q88 125 353 125q190 0 281 -116q77 -98 92 -291q7 -76 7 -237t-32 -265
q-32 -105 -73 -156q-95 -116 -284 -114q-129 0 -199 26t-114 80v-416h-229z" />
    <glyph glyph-name="q" unicode="q" horiz-adv-x="1107" 
d="M520 186q188 0 228 152q22 83 22 258q0 174 -47 265t-193 91t-189 -92q-44 -92 -44 -290t43 -291t180 -93zM770 -324v426q-82 -117 -324 -116q-187 0 -279 115q-99 124 -99 433q0 179 13 272t52 181q79 178 324 178q153 1 225 -27t115 -85l32 104l170 -14v-1467h-229z
" />
    <glyph glyph-name="r" unicode="r" horiz-adv-x="647" 
d="M111 0v1130l180 17l20 -121q82 129 320 129v-217q-224 -6 -267 -158q-24 -85 -24 -211v-569h-229z" />
    <glyph glyph-name="s" unicode="s" horiz-adv-x="862" 
d="M430 -14q-244 0 -401 80l88 178q139 -70 311 -70t172 131q0 66 -46 103t-196 96t-222 131q-71 72 -70 205q0 326 385 325q188 0 325 -59l-90 -191q-118 49 -224 49t-142 -29q-36 -30 -35 -88q0 -58 44 -93q43 -36 193 -94t222 -131t71 -222q0 -321 -385 -321z" />
    <glyph glyph-name="t" unicode="t" horiz-adv-x="780" 
d="M33 944v201h186l35 289l184 39v-328h267v-201h-267v-600q0 -78 26 -111t111 -32h130v-201q-111 -6 -156 -6q-199 0 -269 74t-69 251v625h-178z" />
    <glyph glyph-name="u" unicode="u" horiz-adv-x="1069" 
d="M538 -16q-255 0 -345 104t-91 350v707h232v-694q0 -147 36 -205t167 -58t168 58t36 207v692h226v-707q0 -248 -87 -351t-342 -103z" />
    <glyph glyph-name="v" unicode="v" horiz-adv-x="983" 
d="M369 -8l-357 1153h240l246 -850l243 850h230l-359 -1153h-243z" />
    <glyph glyph-name="w" unicode="w" horiz-adv-x="1492" 
d="M324 -8l-299 1153h231l188 -789l203 789h211l201 -780l190 780h219l-297 -1153h-219l-204 766l-203 -766h-221z" />
    <glyph glyph-name="x" unicode="x" horiz-adv-x="966" 
d="M702 0l-233 406l-217 -406h-234l338 602l-309 543h248l201 -354l190 354h234l-310 -553l338 -592h-246z" />
    <glyph glyph-name="y" unicode="y" horiz-adv-x="950" 
d="M135 -324v187h113q43 0 63 14t31 51l20 70l-350 1147h234l233 -819l232 819h225l-385 -1264q-37 -121 -105 -163t-200 -42h-111z" />
    <glyph glyph-name="z" unicode="z" horiz-adv-x="864" 
d="M37 0v156l489 788h-460v201h745v-158l-492 -799h510v-188h-792z" />
    <glyph glyph-name="braceleft" unicode="{" horiz-adv-x="899" 
d="M645 1376q-162 0 -162 -120q0 -62 39 -237t39 -239q0 -119 -104 -153q104 -39 104 -156q0 -72 -39 -248q-39 -175 -39 -233t40 -90t122 -33h111v-191h-176q-176 0 -255 64t-79 199q0 61 43 258t43 247t-43 66q-43 18 -166 18v195q123 0 166 17q43 16 43 70t-43 247
t-43 254q0 137 79 200t253 64h178v-199h-111z" />
    <glyph glyph-name="bar" unicode="|" horiz-adv-x="608" 
d="M188 -324v1899h234v-1899h-234z" />
    <glyph glyph-name="braceright" unicode="}" horiz-adv-x="899" 
d="M145 -324v191h111q82 0 122 33t40 90t-40 233t-40 248q0 119 104 156q-104 37 -104 153q0 62 40 238t40 238q0 122 -162 120h-111v199h179q174 1 252 -63t77 -201q0 -61 -43 -254t-43 -246t42 -69t169 -17v-197q-125 0 -168 -17t-43 -67t43 -248q43 -196 43 -257
q0 -135 -78 -199t-253 -64h-177z" />
    <glyph glyph-name="asciitilde" unicode="~" 
d="M356 1069q57 0 134 -43t106 -43q55 0 121 96l147 -86q-96 -193 -248 -192q-59 0 -137 42t-104 42q-60 0 -119 -88l-150 84q94 188 250 188z" />
    <glyph glyph-name="exclamdown" unicode="&#xa1;" horiz-adv-x="653" 
d="M193 1229v289h270v-289h-270zM201 0l22 1073h209l21 -1073h-252z" />
    <glyph glyph-name="cent" unicode="&#xa2;" horiz-adv-x="919" 
d="M416 -197v197q-194 32 -265 187q-65 139 -65 392t71 393t259 175v170h221v-162q117 -8 209 -53l-98 -195q-80 43 -183 43q-141 0 -193 -89t-52 -293t50 -294q52 -90 199 -90q94 0 205 52l86 -173q-119 -59 -223 -67v-193h-221z" />
    <glyph glyph-name="sterling" unicode="&#xa3;" horiz-adv-x="1069" 
d="M1024 330q0 -184 -62 -262t-234 -78q-171 0 -339 86q-94 -76 -354 -76v203q155 1 199 29t44 125t-51 317h-188v188h147q-39 184 -39 285q-1 197 101 292t330 95t395 -86l-99 -186q-127 61 -305 61q-195 0 -194 -201q0 -86 35 -260h319v-188h-285q43 -227 43 -309
t-10 -127q121 -51 232 -52q69 0 91 36t21 116v119h203v-127z" />
    <glyph glyph-name="currency" unicode="&#xa4;" horiz-adv-x="1175" 
d="M53 825v189h199q27 274 139 397q113 123 345 123t376 -88l-108 -193q-118 61 -252 61t-194 -71q-60 -72 -77 -229h402v-189h-412v-123h412v-188h-402q17 -168 77 -244t186 -76t262 70l104 -182q-172 -98 -394 -98t-332 125t-134 405h-197v188h189v123h-189z" />
    <glyph glyph-name="yen" unicode="&#xa5;" horiz-adv-x="1103" 
d="M117 455v188h317l-411 875h243l287 -656l287 656h239l-409 -875h319v-188h-325v-125h325v-189h-325v-141h-224v141h-323v189h323v125h-323z" />
    <glyph glyph-name="brokenbar" unicode="&#xa6;" horiz-adv-x="608" 
d="M188 788v787h234v-787h-234zM188 -324v787h234v-787h-234z" />
    <glyph glyph-name="section" unicode="&#xa7;" horiz-adv-x="952" 
d="M475 598q190 0 191 154q0 82 -48 118t-143 35q-96 0 -142 -36q-46 -37 -46 -117t46 -117t142 -37zM801 1337h-80q-86 0 -114 -39t-27 -120v-109q143 -18 206 -93q64 -75 64 -218t-64 -217t-204 -92v-105q0 -174 -70 -266t-268 -92q-63 0 -101 4v180h78q86 0 114 38
t27 120v121q-137 18 -198 93t-62 216q0 141 62 216t198 93v104q0 175 70 267t266 92l103 -2v-191z" />
    <glyph glyph-name="dieresis" unicode="&#xa8;" 
d="M573 1260v235h205v-235h-205zM199 1260v235h204v-235h-204z" />
    <glyph glyph-name="copyright" unicode="&#xa9;" horiz-adv-x="1366" 
d="M1196 767q0 323 -114 502t-406 179t-403 -197q-101 -180 -101 -490t106 -500q106 -189 403 -189q298 0 413 195q102 177 102 500zM664 -20q-158 0 -280 56q-311 143 -308 722q0 454 184 638q146 144 422 144q353 0 488 -223q126 -205 124 -559q0 -452 -187 -634
q-149 -144 -443 -144zM694 262q-211 0 -290 126t-78 380q0 123 15 208q35 201 172 261q77 35 211 35t230 -64l-82 -127q-68 45 -184 45t-162 -83q-47 -83 -47 -279t47 -281q48 -84 164 -84t199 54l76 -121q-115 -70 -271 -70z" />
    <glyph glyph-name="ordfeminine" unicode="&#xaa;" horiz-adv-x="954" 
d="M578 1055q-170 0 -234 -33t-63 -126q-1 -93 33 -127t115 -34t131 47t50 164v109h-32zM127 276v168h688v-168h-688zM369 580q-268 0 -269 286q0 192 110 258t368 66h32q-2 94 -30 133q-30 39 -134 39t-215 -49l-75 155q131 66 320 66t254 -73t65 -251v-374q0 -50 12 -66
t59 -16v-166l-57 -2q-86 0 -124 24t-52 88q-65 -118 -264 -118z" />
    <glyph glyph-name="guillemotleft" unicode="&#xab;" horiz-adv-x="1228" 
d="M848 0l-250 571l250 574h201l-234 -574l234 -571h-201zM385 0l-250 571l250 574h205l-236 -574l236 -571h-205z" />
    <glyph glyph-name="logicalnot" unicode="&#xac;" horiz-adv-x="1703" 
d="M928 760q0 20 -10 41l12 10q14 -25 14 -51t-14 -51l-12 10q10 21 10 41zM760 760q0 26 14 51l12 -10q-10 -21 -10 -41t10 -41q-4 -4 -12 -10q-14 25 -14 51zM852 856q33 0 53 -18l-10 -13q-23 14 -47 14t-39 -14l-10 13q20 18 53 18zM853 664q-32 0 -56 18l12 12
q20 -14 45 -14t41 14q4 -4 10 -12q-20 -18 -52 -18zM851 895q44 0 79 -29l-12 -14q-29 25 -65 25t-67 -25l-14 14q35 29 79 29zM745 838l15 -15q-36 -65 0 -127l-15 -14q-25 35 -24 78q0 43 24 78zM853 625q-44 0 -83 28l14 15q35 -25 69 -25t65 25l14 -15q-35 -28 -79 -28z
M983 761q0 -44 -25 -79l-16 14q20 31 21 64q0 33 -21 63l16 15q25 -33 25 -77zM1022 760q0 -60 -35 -107q-6 8 -14 15q29 41 28 92q0 51 -28 90l14 14q35 -44 35 -104zM682 760q0 60 33 104l16 -14q-29 -41 -29 -90t29 -90l-16 -15q-33 45 -33 105zM852 936q62 0 106 -39
l-14 -16q-39 35 -92 35t-92 -35l-15 16q45 39 107 39zM853 584q-60 0 -110 39l15 16q45 -35 95 -35t91 35l14 -16q-45 -39 -105 -39zM1063 763q0 -73 -43 -136l-16 14q39 51 38 119q0 68 -38 119l14 14q45 -57 45 -130zM641 760q0 74 43 133l16 -14q-38 -51 -38 -118
t38 -118l-16 -16q-43 59 -43 133zM851 543q-75 0 -134 49l14 16q51 -45 120 -45t120 45l14 -16q-59 -49 -134 -49zM852 977q76 0 135 -49l-16 -17q-51 45 -119 45t-119 -45l-16 17q59 49 135 49zM853 1028q95 0 167 -61l-14 -17q-68 57 -154 57t-154 -57l-14 15
q74 63 169 63zM1114 759q0 -95 -57 -165l-15 14q51 68 52 152q0 84 -54 153l17 15q57 -74 57 -169zM590 761q0 95 57 165l15 -15q-52 -67 -52 -151t54 -154l-17 -14q-57 74 -57 169zM850 492q-96 0 -168 61l14 16q72 -57 157 -57t153 57l14 -14q-74 -63 -170 -63zM851 1092
q120 0 210 -80l-12 -15q-84 74 -195 74t-199 -74l-14 17q90 78 210 78zM526 761q0 118 74 208l14 -15q-68 -88 -68 -194t68 -195l-16 -14q-72 92 -72 210zM852 428q-117 0 -211 78l14 16q88 -74 197 -74t197 74l12 -16q-92 -78 -209 -78zM1178 761q0 -118 -72 -210l-16 14
q68 88 68 196t-71 193l17 15q74 -90 74 -208zM854 348q-150 0 -266 101l14 14q106 -94 250 -94t248 94l14 -17q-110 -98 -260 -98zM449 760q0 147 92 262l16 -14q-88 -109 -88 -248t88 -248l-16 -14q-92 115 -92 262zM1235 760q0 139 -88 248l16 14q92 -115 92 -262
t-92 -262l-16 14q88 109 88 248zM852 1171q152 0 262 -100l-4 -2l-4 -8l-4 -4q-106 94 -250 94t-248 -94l-14 16q110 98 262 98zM350 760q0 184 115 327l16 -14q-111 -137 -111 -315t111 -312l-14 -14q-117 144 -117 328zM854 1251q-180 0 -315 -118l-15 14q140 125 328 125
t330 -125l-15 -17q-133 121 -313 121zM1354 760q0 -188 -117 -328q-6 4 -16 14q113 136 113 316t-113 311l16 14q117 -139 117 -327zM853 248q-189 0 -331 125l15 16q133 -121 315 -121t313 121l15 -16q-138 -125 -327 -125zM1456 760q0 224 -143 395l16 14
q147 -175 147 -409t-147 -410l-14 12q141 174 141 398zM248 759q0 -226 141 -397l-14 -14q-147 180 -147 412t145 409l16 -14q-141 -170 -141 -396zM852 1397q234 0 412 -158l-15 -16q-166 153 -394 153t-400 -151l-15 14q178 158 412 158zM850 123q-236 0 -410 158l15 14
q172 -152 398 -152t394 152l15 -16q-176 -156 -412 -156zM74 759q0 292 184 513q6 -4 14 -12q-178 -217 -178 -500t180 -500l-16 -14q-184 221 -184 513zM1610 760q0 283 -180 500l16 14q184 -221 184 -513t-184 -515q-6 6 -16 14q180 217 180 500zM852 -35q-295 0 -516 199
l14 16q215 -194 501 -194t501 192l4 -2l8 -8l2 -4q-219 -199 -514 -199zM853 1534q-286 0 -501 -195l-14 17q219 198 514 198t516 -198l-14 -17q-215 195 -501 195z" />
    <glyph glyph-name="registered" unicode="&#xae;" horiz-adv-x="1366" 
d="M535 772h186q84 0 120 40t36 134t-36 134t-120 40h-186v-348zM535 651v-375h-148v973h338q163 -1 229 -71t66 -208t-42 -212q-42 -72 -140 -96l174 -386h-150l-170 375h-157zM1196 767q0 323 -114 502t-406 179t-403 -197q-101 -180 -101 -490t106 -500
q106 -189 403 -189q298 0 413 195q102 177 102 500zM664 -20q-158 0 -280 56q-311 143 -308 722q0 454 184 638q146 144 422 144q353 0 488 -223q126 -205 124 -559q0 -452 -187 -634q-149 -144 -443 -144z" />
    <glyph glyph-name="macron" unicode="&#xaf;" 
d="M154 1260v190h665v-190h-665z" />
    <glyph glyph-name="macron" unicode="&#x304;" 
d="M154 1260v190h665v-190h-665z" />
    <glyph glyph-name="degree" unicode="&#xb0;" horiz-adv-x="948" 
d="M674 1048q0 144 -40 221t-159 77t-159 -77t-40 -227t40 -228t161 -79q121 0 159 84q38 85 38 229zM473 559q-227 0 -306 136t-79 352q0 361 193 450q79 37 193 37q232 0 314 -144q74 -128 74 -343q0 -363 -194 -451q-80 -37 -195 -37z" />
    <glyph glyph-name="plusminus" unicode="&#xb1;" horiz-adv-x="1787" 
d="M1636 -2q-154 0 -215 62t-61 227v1288h229v-1260q1 -71 21 -93t108 -21v-201q-10 -2 -82 -2zM786 0v944h-342v-944h-229v944h-182v201h182v104q0 328 350 328h99v-201h-78q-84 0 -113 -36t-29 -115v-80h342v104q0 328 353 328h96v-201h-78q-84 0 -113 -36t-28 -115v-80
h219v-201h-219v-944h-230z" />
    <glyph glyph-name="twosuperior" unicode="&#xb2;" horiz-adv-x="808" 
d="M100 559v133l224 262q118 134 146 184t28 112t-30 86t-116 24t-174 -45l-78 151q120 62 282 62t230 -62t68 -180q0 -116 -40 -191t-181 -241l-121 -143h358v-152h-596z" />
    <glyph glyph-name="threesuperior" unicode="&#xb3;" horiz-adv-x="817" 
d="M705 842q0 -160 -78 -226t-250 -67q-172 0 -287 67l78 142q92 -49 192 -49q100 1 132 33t32 111t-31 108q-32 29 -135 28h-131v156h133q82 -1 112 25t30 90t-29 83q-29 21 -117 21t-180 -43l-74 143q116 64 278 64t232 -49t70 -201t-94 -193q70 -25 94 -77t23 -166z" />
    <glyph glyph-name="acute" unicode="&#xb4;" 
d="M338 1260l223 346h256l-280 -346h-199z" />
    <glyph glyph-name="mu" unicode="&#xb5;" horiz-adv-x="1075" 
d="M111 -324v1469h229v-694q0 -147 37 -205t168 -58t167 58t36 207v692h225v-707q0 -248 -85 -351t-335 -103q-164 0 -213 71v-379h-229z" />
    <glyph glyph-name="mu" unicode="&#x3bc;" horiz-adv-x="1075" 
d="M111 -324v1469h229v-694q0 -147 37 -205t168 -58t167 58t36 207v692h225v-707q0 -248 -85 -351t-335 -103q-164 0 -213 71v-379h-229z" />
    <glyph glyph-name="paragraph" unicode="&#xb6;" horiz-adv-x="1095" 
d="M561 762h191v549h-191q-143 -1 -203 -63t-59 -213q-1 -151 59 -212t203 -61zM381 0v578q-174 38 -244 150t-69 312q0 248 109 363q110 115 388 115h410v-1518h-223v561h-148v-561h-223z" />
    <glyph glyph-name="periodcentered" unicode="&#xb7;" horiz-adv-x="471" 
d="M100 571v297h271v-297h-271z" />
    <glyph glyph-name="periodcentered" unicode="&#x2219;" horiz-adv-x="471" 
d="M100 571v297h271v-297h-271z" />
    <glyph glyph-name="cedilla" unicode="&#xb8;" 
d="M524 -467q-125 0 -229 47l51 113q74 -29 145 -29t95 20t24 70q0 49 -32 64q-33 14 -119 10l-47 35l30 151h131l-18 -104q97 6 153 -30t56 -142t-57 -156q-58 -49 -183 -49z" />
    <glyph glyph-name="onesuperior" unicode="&#xb9;" horiz-adv-x="589" 
d="M227 559v791h-139v168h332v-959h-193z" />
    <glyph glyph-name="ordmasculine" unicode="&#xba;" horiz-adv-x="954" 
d="M125 276v168h704v-168h-704zM670 1057q0 149 -37 225t-156 76t-155 -76t-37 -232q1 -156 37 -233q36 -76 158 -76t156 83t34 233zM478 1534q222 0 303 -123t81 -359t-80 -356q-80 -121 -308 -121t-307 136q-71 121 -72 349t80 351t303 123z" />
    <glyph glyph-name="guillemotright" unicode="&#xbb;" horiz-adv-x="1228" 
d="M641 0l233 573l-233 572h203l248 -572l-248 -573h-203zM178 0l236 573l-236 572h203l250 -572l-250 -573h-203z" />
    <glyph glyph-name="onequarter" unicode="&#xbc;" horiz-adv-x="1648" 
d="M242 559v791h-140v168h332v-959h-192zM887 182v144l334 632h190l-332 -624h203l33 239h137v-239h123v-152h-123v-182h-172v182h-393zM342 0l676 1518h207l-676 -1518h-207z" />
    <glyph glyph-name="onehalf" unicode="&#xbd;" horiz-adv-x="1744" 
d="M1040 0v133l224 260q118 137 146 187t28 110q0 62 -30 86t-112 25q-82 0 -178 -45l-78 151q127 63 299 64q283 0 283 -254q0 -104 -41 -180t-182 -242l-121 -143h356v-152h-594zM242 559v791h-140v168h332v-959h-192zM342 0l676 1518h207l-676 -1518h-207z" />
    <glyph glyph-name="threequarters" unicode="&#xbe;" horiz-adv-x="1808" 
d="M1047 182v144l335 632h191l-332 -624h203l33 239h137v-239h123v-152h-123v-182h-172v182h-395zM502 0l676 1518h206l-675 -1518h-207zM705 842q0 -160 -78 -226t-250 -67q-172 0 -287 67l78 142q92 -49 192 -49q100 1 132 33t32 111t-31 108q-32 29 -135 28h-131v156h133
q82 -1 112 25t30 90t-29 83q-29 21 -117 21t-180 -43l-74 143q116 64 278 64t232 -49t70 -201t-94 -193q70 -25 94 -77t23 -166z" />
    <glyph glyph-name="questiondown" unicode="&#xbf;" horiz-adv-x="1124" 
d="M483 1255v263h269v-263h-269zM572 -16q-242 0 -334 91t-92 243t43 228q44 76 157 182t137 161q25 55 21 203h225q2 -176 -31 -254q-34 -78 -146 -184t-144 -156q-32 -49 -31 -129q0 -80 46 -126q45 -46 189 -46t291 75l103 -194q-192 -94 -434 -94z" />
    <glyph glyph-name="Agrave" unicode="&#xc0;" horiz-adv-x="1263" 
d="M580 1602l-283 346h258l225 -346h-200zM416 504h422l-209 696zM37 0l469 1528h252l469 -1528h-244l-86 289h-541l-84 -289h-235z" />
    <glyph glyph-name="Aacute" unicode="&#xc1;" horiz-adv-x="1263" 
d="M479 1602l223 346h256l-280 -346h-199zM416 504h422l-209 696zM37 0l469 1528h252l469 -1528h-244l-86 289h-541l-84 -289h-235z" />
    <glyph glyph-name="Acircumflex" unicode="&#xc2;" horiz-adv-x="1263" 
d="M295 1602l227 346h215l228 -346h-189l-149 186l-150 -186h-182zM416 504h422l-209 696zM37 0l469 1528h252l469 -1528h-244l-86 289h-541l-84 -289h-235z" />
    <glyph glyph-name="Atilde" unicode="&#xc3;" horiz-adv-x="1263" 
d="M737 1780q55 0 121 96l148 -86q-96 -193 -248 -193q-59 0 -137 42t-105 42q-60 0 -119 -88l-149 84q94 188 250 189q57 0 134 -43t105 -43zM416 504h422l-209 696zM37 0l469 1528h252l469 -1528h-244l-86 289h-541l-84 -289h-235z" />
    <glyph glyph-name="Adieresis" unicode="&#xc4;" horiz-adv-x="1263" 
d="M715 1602v235h205v-235h-205zM340 1602v235h205v-235h-205zM416 504h422l-209 696zM37 0l469 1528h252l469 -1528h-244l-86 289h-541l-84 -289h-235z" />
    <glyph glyph-name="Aring" unicode="&#xc5;" horiz-adv-x="1263" 
d="M629 1528q106 0 106 136t-106 136t-106 -136t106 -136zM416 504h422l-209 696zM401 1663q-1 254 227 254q228 1 228 -265q0 -126 -78 -192l449 -1460h-244l-86 289h-541l-84 -289h-235l446 1454q-82 61 -82 209z" />
    <glyph glyph-name="AE" unicode="&#xc6;" horiz-adv-x="1832" 
d="M874 500v782l-376 -782h376zM1741 1518v-218h-635v-413h602v-213h-602v-461h639v-213h-871v297h-473l-141 -297h-233l729 1518h985z" />
    <glyph glyph-name="Ccedilla" unicode="&#xc7;" horiz-adv-x="1095" 
d="M581 -467q-125 0 -229 47l51 113q74 -29 145 -29q72 0 96 20t24 70t-33 64t-119 10l-47 35l27 133q-242 41 -337 230t-96 532q0 464 171 638q138 138 417 138q231 0 383 -100l-127 -197q-102 66 -262 66q-193 0 -267 -125t-75 -426q0 -301 74 -428t270 -127q160 0 285 79
l117 -182q-170 -111 -414 -110h-10l-13 -74q98 6 154 -30t55 -142q0 -106 -57 -156q-58 -49 -183 -49z" />
    <glyph glyph-name="Egrave" unicode="&#xc8;" horiz-adv-x="1087" 
d="M494 1602l-283 346h258l225 -346h-200zM129 0v1518h866v-218h-635v-409h605v-217h-605v-461h639v-213h-870z" />
    <glyph glyph-name="Eacute" unicode="&#xc9;" horiz-adv-x="1087" 
d="M129 0v1518h866v-218h-635v-409h605v-217h-605v-461h639v-213h-870zM393 1602l223 346h256l-280 -346h-199z" />
    <glyph glyph-name="Ecircumflex" unicode="&#xca;" horiz-adv-x="1087" 
d="M129 0v1518h866v-218h-635v-409h605v-217h-605v-461h639v-213h-870zM209 1602l227 346h215l228 -346h-189l-149 186l-150 -186h-182z" />
    <glyph glyph-name="Edieresis" unicode="&#xcb;" horiz-adv-x="1087" 
d="M129 0v1518h866v-218h-635v-409h605v-217h-605v-461h639v-213h-870zM629 1602v235h205v-235h-205zM254 1602v235h205v-235h-205z" />
    <glyph glyph-name="Igrave" unicode="&#xcc;" horiz-adv-x="524" 
d="M143 0v1518h238v-1518h-238zM174 1602l-242 348h254l185 -348h-197z" />
    <glyph glyph-name="Iacute" unicode="&#xcd;" horiz-adv-x="524" 
d="M143 0v1518h238v-1518h-238zM152 1602l186 348h252l-242 -348h-196z" />
    <glyph glyph-name="Icircumflex" unicode="&#xce;" horiz-adv-x="524" 
d="M143 0v1518h238v-1518h-238zM-68 1602l222 348h215l223 -348h-186l-146 188l-145 -188h-183z" />
    <glyph glyph-name="Idieresis" unicode="&#xcf;" horiz-adv-x="524" 
d="M350 1602v235h205v-235h-205zM-25 1602v235h205v-235h-205zM143 0v1518h238v-1518h-238z" />
    <glyph glyph-name="Eth" unicode="&#xd0;" horiz-adv-x="1255" 
d="M367 207h219q213 0 290 123q76 123 76 427t-75 424q-76 120 -291 119h-219v-428h239v-194h-239v-471zM2 678v194h127v646h442q349 0 485 -174t136 -588t-133 -585t-492 -171h-438v678h-127z" />
    <glyph glyph-name="Ntilde" unicode="&#xd1;" horiz-adv-x="1314" 
d="M764 1780q55 0 121 96l147 -86q-96 -193 -248 -193q-59 0 -137 42t-104 42q-60 0 -119 -88l-150 84q94 188 250 189q57 0 134 -43t106 -43zM129 0v1518h254l578 -1043v1043h227v-1518h-219l-615 1100v-1100h-225z" />
    <glyph glyph-name="Ograve" unicode="&#xd2;" horiz-adv-x="1312" 
d="M606 1602l-282 346h258l225 -346h-201zM919 296q67 77 85 272q6 75 6 236q0 296 -90 399q-90 104 -263 104q-263 0 -321 -223q-33 -127 -33 -284t6 -232q7 -76 27 -152t58 -120q86 -101 262 -101t263 101zM657 -16q-153 0 -263 42t-172 108t-99 172q-37 104 -48 208
q-45 426 48 696q37 106 99 173t173 109t263 42t261 -42q110 -42 172 -109t99 -173t48 -210t11 -242t-11 -242t-48 -210t-99 -172t-172 -108t-262 -42z" />
    <glyph glyph-name="Oacute" unicode="&#xd3;" horiz-adv-x="1312" 
d="M919 296q67 77 85 272q6 75 6 236q0 296 -90 399q-90 104 -263 104q-263 0 -321 -223q-33 -127 -33 -284t6 -232q7 -76 27 -152t58 -120q86 -101 262 -101t263 101zM657 -16q-153 0 -263 42t-172 108t-99 172q-37 104 -48 208q-45 426 48 696q37 106 99 173t173 109
t263 42t261 -42q110 -42 172 -109t99 -173t48 -210t11 -242t-11 -242t-48 -210t-99 -172t-172 -108t-262 -42zM506 1602l223 346h256l-280 -346h-199z" />
    <glyph glyph-name="Ocircumflex" unicode="&#xd4;" horiz-adv-x="1312" 
d="M919 296q67 77 85 272q6 75 6 236q0 296 -90 399q-90 104 -263 104q-263 0 -321 -223q-33 -127 -33 -284t6 -232q7 -76 27 -152t58 -120q86 -101 262 -101t263 101zM657 -16q-153 0 -263 42t-172 108t-99 172q-37 104 -48 208q-45 426 48 696q37 106 99 173t173 109
t263 42t261 -42q110 -42 172 -109t99 -173t48 -210t11 -242t-11 -242t-48 -210t-99 -172t-172 -108t-262 -42zM322 1602l227 346h215l227 -346h-188l-150 186l-149 -186h-182z" />
    <glyph glyph-name="Otilde" unicode="&#xd5;" horiz-adv-x="1312" 
d="M764 1780q55 0 121 96l147 -86q-96 -193 -248 -193q-59 0 -137 42t-104 42q-60 0 -119 -88l-150 84q94 188 250 189q57 0 134 -43t106 -43zM919 296q67 77 85 272q6 75 6 236q0 296 -90 399q-90 104 -263 104q-263 0 -321 -223q-33 -127 -33 -284t6 -232q7 -76 27 -152
t58 -120q86 -101 262 -101t263 101zM657 -16q-153 0 -263 42t-172 108t-99 172q-37 104 -48 208q-45 426 48 696q37 106 99 173t173 109t263 42t261 -42q110 -42 172 -109t99 -173t48 -210t11 -242t-11 -242t-48 -210t-99 -172t-172 -108t-262 -42z" />
    <glyph glyph-name="Odieresis" unicode="&#xd6;" horiz-adv-x="1312" 
d="M919 296q67 77 85 272q6 75 6 236q0 296 -90 399q-90 104 -263 104q-263 0 -321 -223q-33 -127 -33 -284t6 -232q7 -76 27 -152t58 -120q86 -101 262 -101t263 101zM657 -16q-153 0 -263 42t-172 108t-99 172q-37 104 -48 208q-45 426 48 696q37 106 99 173t173 109
t263 42t261 -42q110 -42 172 -109t99 -173t48 -210t11 -242t-11 -242t-48 -210t-99 -172t-172 -108t-262 -42zM741 1602v235h205v-235h-205zM367 1602v235h204v-235h-204z" />
    <glyph glyph-name="multiply" unicode="&#xd7;" horiz-adv-x="1187" 
d="M338 322l-139 143l254 256l-254 254l141 143l254 -254l256 254l139 -143l-256 -254l254 -254l-137 -143l-256 254z" />
    <glyph glyph-name="Oslash" unicode="&#xd8;" horiz-adv-x="1312" 
d="M297 752q0 -319 74 -437l413 985q-59 16 -140 16q-80 0 -148 -28q-68 -29 -106 -75q-72 -87 -87 -276q-6 -74 -6 -185zM664 184q171 0 260 103q68 78 86 276q6 76 6 189q0 317 -78 438l-420 -987q59 -19 146 -19zM63 708q0 188 12 292q11 104 48 210t99 173t173 109
t247 42t235 -29l51 99h207l-86 -185q117 -94 159 -260t41 -353q0 -186 -11 -290t-48 -210t-99 -172t-172 -108q-109 -42 -241 -42t-236 24l-41 -92h-221l84 180q-117 94 -159 259t-42 353z" />
    <glyph glyph-name="Ugrave" unicode="&#xd9;" horiz-adv-x="1308" 
d="M602 1602l-283 346h259l225 -346h-201zM656 -20q-296 0 -416 132t-121 402v1004h237v-983q0 -181 64 -261t237 -80q174 0 239 80q65 78 65 261v983h229v-1004q0 -272 -119 -403t-415 -131z" />
    <glyph glyph-name="Uacute" unicode="&#xda;" horiz-adv-x="1308" 
d="M656 -20q-296 0 -416 132t-121 402v1004h237v-983q0 -181 64 -261t237 -80q174 0 239 80q65 78 65 261v983h229v-1004q0 -272 -119 -403t-415 -131zM502 1602l223 346h256l-281 -346h-198z" />
    <glyph glyph-name="Ucircumflex" unicode="&#xdb;" horiz-adv-x="1308" 
d="M656 -20q-296 0 -416 132t-121 402v1004h237v-983q0 -181 64 -261t237 -80q174 0 239 80q65 78 65 261v983h229v-1004q0 -272 -119 -403t-415 -131zM317 1602l228 346h215l227 -346h-188l-150 186l-149 -186h-183z" />
    <glyph glyph-name="Udieresis" unicode="&#xdc;" horiz-adv-x="1308" 
d="M656 -20q-296 0 -416 132t-121 402v1004h237v-983q0 -181 64 -261t237 -80q174 0 239 80q65 78 65 261v983h229v-1004q0 -272 -119 -403t-415 -131zM737 1602v235h205v-235h-205zM362 1602v235h205v-235h-205z" />
    <glyph glyph-name="Yacute" unicode="&#xdd;" horiz-adv-x="1204" 
d="M451 1602l223 346h256l-281 -346h-198zM483 0v537l-475 981h252l344 -725l346 725h244l-475 -981v-537h-236z" />
    <glyph glyph-name="Thorn" unicode="&#xde;" horiz-adv-x="1175" 
d="M362 518h295q131 0 187 62t57 213q0 150 -56 212t-188 62h-295v-549zM129 0v1518h233v-244h304q258 0 362 -115t104 -359t-104 -364q-106 -121 -366 -121h-300v-315h-233z" />
    <glyph glyph-name="germandbls" unicode="&#xdf;" horiz-adv-x="1122" 
d="M111 0v1174q0 416 440 415q229 0 329 -93t99 -304q0 -164 -31 -247t-110 -118q127 -27 174 -117t47 -280q0 -242 -109 -336t-393 -94h-90v207h90q158 0 216 57q58 58 58 196t-57 192t-215 55h-43v194h43q106 0 153 51q46 50 46 180t-48 184t-160 54t-163 -53t-51 -166
v-1151h-225z" />
    <glyph glyph-name="agrave" unicode="&#xe0;" horiz-adv-x="1067" 
d="M483 1260l-282 346h258l225 -346h-201zM466 178q102 0 165 58t63 204v140h-43q-211 0 -291 -40t-80 -158t43 -162q41 -42 143 -42zM428 -12q-213 0 -290 90t-77 266q1 238 139 329t449 91h45q-4 104 -42 149t-144 45q-162 0 -285 -61l-94 186q158 84 392 84
q233 0 315 -90t82 -309v-463q0 -66 14 -85t72 -19v-201q-22 -2 -92 -2t-117 22t-66 80q-88 -112 -301 -112z" />
    <glyph glyph-name="aacute" unicode="&#xe1;" horiz-adv-x="1067" 
d="M383 1260l223 346h256l-280 -346h-199zM466 178q102 0 165 58t63 204v140h-43q-211 0 -291 -40t-80 -158t43 -162q41 -42 143 -42zM428 -12q-213 0 -290 90t-77 266q1 238 139 329t449 91h45q-4 104 -42 149t-144 45q-162 0 -285 -61l-94 186q158 84 392 84
q233 0 315 -90t82 -309v-463q0 -66 14 -85t72 -19v-201q-22 -2 -92 -2t-117 22t-66 80q-88 -112 -301 -112z" />
    <glyph glyph-name="acircumflex" unicode="&#xe2;" horiz-adv-x="1067" 
d="M199 1260l227 346h215l227 -346h-188l-150 186l-149 -186h-182zM466 178q102 0 165 58t63 204v140h-43q-211 0 -291 -40t-80 -158t43 -162q41 -42 143 -42zM428 -12q-213 0 -290 90t-77 266q1 238 139 329t449 91h45q-4 104 -42 149t-144 45q-162 0 -285 -61l-94 186
q158 84 392 84q233 0 315 -90t82 -309v-463q0 -66 14 -85t72 -19v-201q-22 -2 -92 -2t-117 22t-66 80q-88 -112 -301 -112z" />
    <glyph glyph-name="atilde" unicode="&#xe3;" horiz-adv-x="1067" 
d="M641 1438q55 0 121 96l147 -86q-96 -193 -247 -193q-60 0 -138 42t-104 42q-60 0 -119 -88l-149 84q94 188 249 189q57 0 135 -43t105 -43zM466 178q102 0 165 58t63 204v140h-43q-211 0 -291 -40t-80 -158t43 -162q41 -42 143 -42zM428 -12q-213 0 -290 90t-77 266
q1 238 139 329t449 91h45q-4 104 -42 149t-144 45q-162 0 -285 -61l-94 186q158 84 392 84q233 0 315 -90t82 -309v-463q0 -66 14 -85t72 -19v-201q-22 -2 -92 -2t-117 22t-66 80q-88 -112 -301 -112z" />
    <glyph glyph-name="adieresis" unicode="&#xe4;" horiz-adv-x="1067" 
d="M618 1260v235h205v-235h-205zM244 1260v235h205v-235h-205zM466 178q102 0 165 58t63 204v140h-43q-211 0 -291 -40t-80 -158t43 -162q41 -42 143 -42zM428 -12q-213 0 -290 90t-77 266q1 238 139 329t449 91h45q-4 104 -42 149t-144 45q-162 0 -285 -61l-94 186
q158 84 392 84q233 0 315 -90t82 -309v-463q0 -66 14 -85t72 -19v-201q-22 -2 -92 -2t-117 22t-66 80q-88 -112 -301 -112z" />
    <glyph glyph-name="aring" unicode="&#xe5;" horiz-adv-x="1067" 
d="M532 1360q106 0 106 136t-106 136t-106 -136t106 -136zM532 1245q-227 0 -227 252t227 252q116 0 172 -70q56 -69 56 -183t-56 -182t-172 -69zM466 178q102 0 165 58t63 204v140h-43q-211 0 -291 -40t-80 -158t43 -162q41 -42 143 -42zM428 -12q-213 0 -290 90t-77 266
q1 238 139 329t449 91h45q-4 104 -42 149t-144 45q-162 0 -285 -61l-94 186q158 84 392 84q233 0 315 -90t82 -309v-463q0 -66 14 -85t72 -19v-201q-22 -2 -92 -2t-117 22t-66 80q-88 -112 -301 -112z" />
    <glyph glyph-name="ae" unicode="&#xe6;" horiz-adv-x="1630" 
d="M1356 666q0 201 -52 249t-168 48q-118 0 -168 -72t-57 -225h445zM466 178q102 0 165 58t63 204v140h-43q-211 0 -291 -40t-80 -158t43 -162q41 -42 143 -42zM1134 -14q-248 0 -350 166q-92 -164 -376 -164q-186 0 -267 91q-80 91 -80 265q1 238 139 329t449 91h45
q-4 104 -42 149t-144 45q-162 0 -285 -61l-94 186q158 84 396 84t313 -112q111 111 317 110q246 0 326 -130q81 -130 81 -347q-1 -104 -1 -223h-648q9 -151 61 -217t196 -66t286 68l88 -176q-162 -88 -410 -88z" />
    <glyph glyph-name="ccedilla" unicode="&#xe7;" horiz-adv-x="878" 
d="M475 -467q-125 0 -229 47l51 113q75 -29 145 -29t95 20t25 70t-34 64q-33 14 -118 10l-48 35l27 133q-184 35 -254 178q-69 144 -69 422t98 424t371 145q170 0 292 -59l-100 -199q-80 43 -182 43q-141 0 -193 -89t-53 -293q0 -204 52 -294t198 -90q94 0 205 52l88 -177
q-158 -76 -322 -75h-2l-12 -74q98 6 153 -30t55 -142t-56 -156q-58 -50 -183 -49z" />
    <glyph glyph-name="egrave" unicode="&#xe8;" horiz-adv-x="1003" 
d="M451 1260l-283 346h258l225 -346h-200zM725 666q-1 202 -49 250q-48 47 -166 47t-167 -72q-50 -72 -56 -225h438zM524 -14q-279 0 -373 159q-49 83 -67 183t-18 245t20 247q68 346 418 345q112 0 177 -15q178 -41 225 -223q30 -116 30 -241v-221h-649q8 -151 60 -217
t198 -66t284 68l89 -176q-163 -88 -394 -88z" />
    <glyph glyph-name="eacute" unicode="&#xe9;" horiz-adv-x="1003" 
d="M725 666q-1 202 -49 250q-48 47 -166 47t-167 -72q-50 -72 -56 -225h438zM524 -14q-279 0 -373 159q-49 83 -67 183t-18 245t20 247q68 346 418 345q112 0 177 -15q178 -41 225 -223q30 -116 30 -241v-221h-649q8 -151 60 -217t198 -66t284 68l89 -176q-163 -88 -394 -88
zM350 1260l223 346h256l-280 -346h-199z" />
    <glyph glyph-name="ecircumflex" unicode="&#xea;" horiz-adv-x="1003" 
d="M725 666q-1 202 -49 250q-48 47 -166 47t-167 -72q-50 -72 -56 -225h438zM524 -14q-279 0 -373 159q-49 83 -67 183t-18 245t20 247q68 346 418 345q112 0 177 -15q178 -41 225 -223q30 -116 30 -241v-221h-649q8 -151 60 -217t198 -66t284 68l89 -176q-163 -88 -394 -88
zM166 1260l227 346h215l228 -346h-189l-149 186l-150 -186h-182z" />
    <glyph glyph-name="edieresis" unicode="&#xeb;" horiz-adv-x="1003" 
d="M725 666q-1 202 -49 250q-48 47 -166 47t-167 -72q-50 -72 -56 -225h438zM524 -14q-279 0 -373 159q-49 83 -67 183t-18 245t20 247q68 346 418 345q112 0 177 -15q178 -41 225 -223q30 -116 30 -241v-221h-649q8 -151 60 -217t198 -66t284 68l89 -176q-163 -88 -394 -88
zM586 1260v235h205v-235h-205zM211 1260v235h205v-235h-205z" />
    <glyph glyph-name="igrave" unicode="&#xec;" horiz-adv-x="464" 
d="M117 0v1145h229v-1145h-229zM147 1260l-202 346h252l147 -346h-197z" />
    <glyph glyph-name="iacute" unicode="&#xed;" horiz-adv-x="464" 
d="M117 0v1145h229v-1145h-229zM121 1260l143 346h256l-203 -346h-196z" />
    <glyph glyph-name="icircumflex" unicode="&#xee;" horiz-adv-x="464" 
d="M117 0v1145h229v-1145h-229zM-72 1260l197 346h215l197 -346h-189l-119 186l-118 -186h-183z" />
    <glyph glyph-name="idieresis" unicode="&#xef;" horiz-adv-x="464" 
d="M117 0v1145h229v-1145h-229zM301 1260v235h184v-235h-184zM-23 1260v235h185v-235h-185z" />
    <glyph glyph-name="eth" unicode="&#xf0;" horiz-adv-x="1079" 
d="M780 524q0 111 -7 167q-18 145 -104 192q-49 27 -121 27t-118 -20q-46 -19 -71 -49q-26 -30 -40 -80t-18 -97t-4 -115q0 -135 22 -214q42 -151 220 -151q177 0 219 151q22 78 22 189zM1012 612q0 -232 -38 -346t-88 -166q-112 -117 -360 -117q-249 1 -355 147
q-105 146 -105 442t123 427q100 107 293 107q192 0 278 -92q-27 102 -78 211l-215 -51v163l135 33q-49 72 -108 121l174 108q90 -61 157 -176l195 47v-163l-121 -29q113 -283 113 -666z" />
    <glyph glyph-name="ntilde" unicode="&#xf1;" horiz-adv-x="1091" 
d="M651 1438q55 0 121 96l148 -86q-96 -193 -248 -193q-59 0 -137 42t-105 42q-60 0 -119 -88l-149 84q94 188 250 189q57 0 134 -43t105 -43zM111 0v1130l182 17l18 -105q86 123 346 123q210 0 275 -119q57 -104 57 -301v-745h-229v692q0 138 -35 196t-165 58t-175 -76
t-45 -260v-610h-229z" />
    <glyph glyph-name="ograve" unicode="&#xf2;" horiz-adv-x="1077" 
d="M485 1260l-282 346h258l225 -346h-201zM780 567q0 97 -7 157q-18 153 -104 200q-50 26 -129 26t-129 -26q-90 -47 -107 -200q-7 -60 -7 -156t7 -156q7 -61 32 -118q49 -110 186 -110t198 72q60 72 60 311zM540 -16q-142 0 -238 42q-170 74 -217 308q-19 100 -19 240
t19 240t69 183q99 168 385 168t385 -169q49 -85 68 -183q20 -97 20 -239t-20 -241q-46 -237 -214 -308q-96 -41 -238 -41z" />
    <glyph glyph-name="oacute" unicode="&#xf3;" horiz-adv-x="1077" 
d="M780 567q0 97 -7 157q-18 153 -104 200q-50 26 -129 26t-129 -26q-90 -47 -107 -200q-7 -60 -7 -156t7 -156q7 -61 32 -118q49 -110 186 -110t198 72q60 72 60 311zM540 -16q-142 0 -238 42q-170 74 -217 308q-19 100 -19 240t19 240t69 183q99 168 385 168t385 -169
q49 -85 68 -183q20 -97 20 -239t-20 -241q-46 -237 -214 -308q-96 -41 -238 -41zM385 1260l223 346h256l-280 -346h-199z" />
    <glyph glyph-name="ocircumflex" unicode="&#xf4;" horiz-adv-x="1077" 
d="M780 567q0 97 -7 157q-18 153 -104 200q-50 26 -129 26t-129 -26q-90 -47 -107 -200q-7 -60 -7 -156t7 -156q7 -61 32 -118q49 -110 186 -110t198 72q60 72 60 311zM540 -16q-142 0 -238 42q-170 74 -217 308q-19 100 -19 240t19 240t69 183q99 168 385 168t385 -169
q49 -85 68 -183q20 -97 20 -239t-20 -241q-46 -237 -214 -308q-96 -41 -238 -41zM201 1260l227 346h215l227 -346h-188l-150 186l-149 -186h-182z" />
    <glyph glyph-name="otilde" unicode="&#xf5;" horiz-adv-x="1077" 
d="M643 1438q55 0 121 96l147 -86q-96 -193 -247 -193q-60 0 -138 42t-104 42q-60 0 -119 -88l-149 84q94 188 249 189q57 0 135 -43t105 -43zM780 567q0 97 -7 157q-18 153 -104 200q-50 26 -129 26t-129 -26q-90 -47 -107 -200q-7 -60 -7 -156t7 -156q7 -61 32 -118
q49 -110 186 -110t198 72q60 72 60 311zM540 -16q-142 0 -238 42q-170 74 -217 308q-19 100 -19 240t19 240t69 183q99 168 385 168t385 -169q49 -85 68 -183q20 -97 20 -239t-20 -241q-46 -237 -214 -308q-96 -41 -238 -41z" />
    <glyph glyph-name="odieresis" unicode="&#xf6;" horiz-adv-x="1077" 
d="M780 567q0 97 -7 157q-18 153 -104 200q-50 26 -129 26t-129 -26q-90 -47 -107 -200q-7 -60 -7 -156t7 -156q7 -61 32 -118q49 -110 186 -110t198 72q60 72 60 311zM540 -16q-142 0 -238 42q-170 74 -217 308q-19 100 -19 240t19 240t69 183q99 168 385 168t385 -169
q49 -85 68 -183q20 -97 20 -239t-20 -241q-46 -237 -214 -308q-96 -41 -238 -41zM621 1260v235h204v-235h-204zM246 1260v235h205v-235h-205z" />
    <glyph glyph-name="divide" unicode="&#xf7;" horiz-adv-x="1187" 
d="M475 985v221h238v-221h-238zM162 616v211h864v-211h-864zM475 236v221h238v-221h-238z" />
    <glyph glyph-name="oslash" unicode="&#xf8;" horiz-adv-x="1077" 
d="M546 178q58 0 104 20q86 37 112 127t26 254t-32 248l-310 -637q42 -12 100 -12zM534 956q-119 0 -182 -72t-63 -286q0 -215 35 -297l309 643q-39 12 -99 12zM66 575q0 139 19 239t69 183q99 168 385 168q104 0 184 -24l47 92h203l-94 -182q133 -133 133 -476
q0 -143 -20 -242q-47 -237 -214 -308q-96 -41 -214 -41t-204 20l-47 -92h-200l92 178q-139 131 -139 485z" />
    <glyph glyph-name="ugrave" unicode="&#xf9;" horiz-adv-x="1069" 
d="M483 1260l-282 346h258l225 -346h-201zM538 -16q-255 0 -345 104t-91 350v707h232v-694q0 -147 36 -205t167 -58t168 58t36 207v692h226v-707q0 -248 -87 -351t-342 -103z" />
    <glyph glyph-name="uacute" unicode="&#xfa;" horiz-adv-x="1069" 
d="M538 -16q-255 0 -345 104t-91 350v707h232v-694q0 -147 36 -205t167 -58t168 58t36 207v692h226v-707q0 -248 -87 -351t-342 -103zM383 1260l223 346h256l-280 -346h-199z" />
    <glyph glyph-name="ucircumflex" unicode="&#xfb;" horiz-adv-x="1069" 
d="M538 -16q-255 0 -345 104t-91 350v707h232v-694q0 -147 36 -205t167 -58t168 58t36 207v692h226v-707q0 -248 -87 -351t-342 -103zM199 1260l227 346h215l227 -346h-188l-150 186l-149 -186h-182z" />
    <glyph glyph-name="udieresis" unicode="&#xfc;" horiz-adv-x="1069" 
d="M538 -16q-255 0 -345 104t-91 350v707h232v-694q0 -147 36 -205t167 -58t168 58t36 207v692h226v-707q0 -248 -87 -351t-342 -103zM618 1260v235h205v-235h-205zM244 1260v235h205v-235h-205z" />
    <glyph glyph-name="yacute" unicode="&#xfd;" horiz-adv-x="950" 
d="M326 1260l223 346h256l-281 -346h-198zM135 -324v187h113q43 0 63 14t31 51l20 70l-350 1147h234l233 -819l232 819h225l-385 -1264q-37 -121 -105 -163t-200 -42h-111z" />
    <glyph glyph-name="thorn" unicode="&#xfe;" horiz-adv-x="1107" 
d="M600 186q80 0 131 50t65 124q14 76 15 215q0 235 -57 305t-166 70q-186 0 -226 -151q-22 -83 -22 -198q0 -114 4 -164t18 -103t40 -82q26 -30 72 -48t126 -18zM111 -324v1899h227v-531q74 121 324 121q190 0 281 -116q77 -98 92 -291q7 -76 7 -237t-32 -265
q-32 -105 -73 -156q-95 -116 -284 -114q-129 0 -199 26t-114 80v-416h-229z" />
    <glyph glyph-name="ydieresis" unicode="&#xff;" horiz-adv-x="950" 
d="M561 1260v235h205v-235h-205zM186 1260v235h205v-235h-205zM135 -324v187h113q43 0 63 14t31 51l20 70l-350 1147h234l233 -819l232 819h225l-385 -1264q-37 -121 -105 -163t-200 -42h-111z" />
    <glyph glyph-name="dotlessi" unicode="&#x131;" horiz-adv-x="464" 
d="M117 0v1145h229v-1145h-229z" />
    <glyph glyph-name="Lslash" unicode="&#x141;" horiz-adv-x="1007" 
d="M129 1518h238v-523l237 133v-194l-237 -133v-588h610v-213h-848v668l-127 -70v195l127 69v656z" />
    <glyph glyph-name="lslash" unicode="&#x142;" horiz-adv-x="669" 
d="M199 1575h229v-385l174 102v-202l-174 -101v-674q0 -71 20 -93t111 -21v-201q-12 -2 -82 -2q-156 0 -217 62t-61 227v569l-158 -90v201l158 90v518z" />
    <glyph glyph-name="OE" unicode="&#x152;" horiz-adv-x="1970" 
d="M919 296q67 77 85 272q6 75 6 236q0 296 -90 399q-90 104 -263 104q-263 0 -321 -223q-33 -127 -33 -284t6 -232q7 -76 27 -152t58 -120q86 -101 262 -101t263 101zM1034 0v100q-133 -117 -377 -116q-153 0 -263 42t-172 108t-99 172q-37 104 -48 208q-45 426 48 696
q37 106 99 173t173 109t262 42q242 0 377 -119v103h844v-218h-635v-413h602v-213h-602v-461h637v-213h-846z" />
    <glyph glyph-name="oe" unicode="&#x153;" horiz-adv-x="1726" 
d="M1247 963q-133 0 -183 -72t-56 -225h442q-2 88 -6 129t-24 87q-19 46 -60 64t-113 17zM780 567q0 97 -7 157q-18 153 -104 200q-50 26 -129 26t-129 -26q-90 -47 -107 -200q-7 -60 -7 -156t7 -156q7 -61 32 -118q49 -110 186 -110t198 72q60 72 60 311zM539 -16
q-283 0 -384 167q-50 83 -70 183q-19 100 -19 240t19 240t69 183q99 168 385 168q250 0 360 -149q106 150 350 150t327 -135q83 -134 81 -346q-2 -103 0 -220h-647q6 -151 58 -217t196 -66t288 68l88 -176q-162 -88 -400 -88t-343 139q-112 -141 -358 -141z" />
    <glyph glyph-name="Scaron" unicode="&#x160;" horiz-adv-x="1132" 
d="M569 -16q-324 0 -520 127l119 182q172 -104 395 -105q270 0 271 205q0 113 -65 164t-269 129t-298 172q-93 94 -93 278q-1 184 123 290q124 108 362 108t416 -86l-103 -203q-139 68 -315 68q-250 0 -250 -183q0 -92 52 -137t216 -110q266 -103 360 -195t95 -290
q0 -198 -125 -306t-371 -108zM457 1602l-228 346h189l147 -187l150 187h184l-227 -346h-215z" />
    <glyph glyph-name="scaron" unicode="&#x161;" horiz-adv-x="862" 
d="M430 -14q-244 0 -401 80l88 178q139 -70 311 -70t172 131q0 66 -46 103t-196 96t-222 131q-71 72 -70 205q0 326 385 325q188 0 325 -59l-90 -191q-118 49 -224 49t-142 -29q-36 -30 -35 -88q0 -58 44 -93q43 -36 193 -94t222 -131t71 -222q0 -321 -385 -321zM326 1260
l-228 346h189l147 -187l150 187h184l-227 -346h-215z" />
    <glyph glyph-name="Ydieresis" unicode="&#x178;" horiz-adv-x="1204" 
d="M686 1602v235h205v-235h-205zM311 1602v235h205v-235h-205zM483 0v537l-475 981h252l344 -725l346 725h244l-475 -981v-537h-236z" />
    <glyph glyph-name="Zcaron" unicode="&#x17d;" horiz-adv-x="1110" 
d="M59 0v182l686 1118h-657v218h940v-197l-684 -1108h703v-213h-988zM446 1602l-227 346h189l147 -187l150 187h184l-227 -346h-216z" />
    <glyph glyph-name="zcaron" unicode="&#x17e;" horiz-adv-x="864" 
d="M37 0v156l489 788h-460v201h745v-158l-492 -799h510v-188h-792zM326 1260l-228 346h189l147 -187l150 187h184l-227 -346h-215z" />
    <glyph glyph-name="florin" unicode="&#x192;" horiz-adv-x="954" 
d="M831 1315h-90q-77 0 -103 -35t-38 -115l-37 -233h268v-201h-299l-161 -1055h-230l160 1055h-168v201h199l39 258q27 172 96 250q70 78 254 78l110 -2v-201z" />
    <glyph glyph-name="circumflex" unicode="&#x2c6;" 
d="M154 1260l227 346h215l227 -346h-188l-150 186l-149 -186h-182z" />
    <glyph glyph-name="caron" unicode="&#x2c7;" 
d="M381 1260l-227 346h188l147 -187l150 187h184l-227 -346h-215z" />
    <glyph glyph-name="breve" unicode="&#x2d8;" 
d="M487 1249q-175 0 -247 76t-95 238l168 24q13 -88 51 -126t124 -38t122 39q37 39 49 125l170 -22q-23 -164 -95 -240t-247 -76z" />
    <glyph glyph-name="dotaccent" unicode="&#x2d9;" 
d="M373 1260v245h231v-245h-231z" />
    <glyph glyph-name="ring" unicode="&#x2da;" 
d="M487 1360q107 0 107 136t-106 136t-107 -136q0 -136 106 -136zM487 1245q-227 0 -227 252t227 252q117 0 172 -70q55 -69 55 -183t-54 -182q-56 -68 -173 -69z" />
    <glyph glyph-name="ogonek" unicode="&#x2db;" 
d="M524 -453q-132 0 -198 43q-66 42 -66 146t62 181t137 120h166q-186 -147 -187 -262q0 -45 24 -65t85 -19h63v-144h-86z" />
    <glyph glyph-name="tilde" unicode="&#x2dc;" 
d="M596 1438q55 0 121 96l147 -86q-96 -193 -248 -193q-59 0 -137 42t-104 42q-60 0 -119 -88l-150 84q94 188 250 189q57 0 134 -43t106 -43z" />
    <glyph glyph-name="hungarumlaut" unicode="&#x2dd;" 
d="M563 1260l219 346h238l-277 -346h-180zM172 1260l217 346h240l-277 -346h-180z" />
    <glyph glyph-name="Delta" unicode="&#x394;" horiz-adv-x="1134" 
d="M786 1272v246h230v-246h-230zM674 -324v187h18q59 0 77 26q17 27 17 103v1153h230v-1161q0 -172 -65 -240t-242 -68h-35zM33 944v201h182v104q0 328 350 328h99v-201h-78q-84 0 -113 -36t-29 -115v-80h220v-201h-220v-944h-229v944h-182z" />
    <glyph glyph-name="Delta" unicode="&#x2206;" horiz-adv-x="1134" 
d="M786 1272v246h230v-246h-230zM674 -324v187h18q59 0 77 26q17 27 17 103v1153h230v-1161q0 -172 -65 -240t-242 -68h-35zM33 944v201h182v104q0 328 350 328h99v-201h-78q-84 0 -113 -36t-29 -115v-80h220v-201h-220v-944h-229v944h-182z" />
    <glyph glyph-name="Omega" unicode="&#x3a9;" horiz-adv-x="1703" 
d="M928 760q0 20 -10 41l12 10q14 -25 14 -51t-14 -51l-12 10q10 21 10 41zM760 760q0 26 14 51l12 -10q-10 -21 -10 -41t10 -41q-4 -4 -12 -10q-14 25 -14 51zM852 856q33 0 53 -18l-10 -13q-23 14 -47 14t-39 -14l-10 13q20 18 53 18zM853 664q-32 0 -56 18l12 12
q20 -14 45 -14t41 14q4 -4 10 -12q-20 -18 -52 -18zM851 895q44 0 79 -29l-12 -14q-29 25 -65 25t-67 -25l-14 14q35 29 79 29zM745 838l15 -15q-36 -65 0 -127l-15 -14q-25 35 -24 78q0 43 24 78zM853 625q-44 0 -83 28l14 15q35 -25 69 -25t65 25l14 -15q-35 -28 -79 -28z
M983 761q0 -44 -25 -79l-16 14q20 31 21 64q0 33 -21 63l16 15q25 -33 25 -77zM1022 760q0 -60 -35 -107q-6 8 -14 15q29 41 28 92q0 51 -28 90l14 14q35 -44 35 -104zM682 760q0 60 33 104l16 -14q-29 -41 -29 -90t29 -90l-16 -15q-33 45 -33 105zM852 936q62 0 106 -39
l-14 -16q-39 35 -92 35t-92 -35l-15 16q45 39 107 39zM853 584q-60 0 -110 39l15 16q45 -35 95 -35t91 35l14 -16q-45 -39 -105 -39zM1063 763q0 -73 -43 -136l-16 14q39 51 38 119q0 68 -38 119l14 14q45 -57 45 -130zM641 760q0 74 43 133l16 -14q-38 -51 -38 -118
t38 -118l-16 -16q-43 59 -43 133zM851 543q-75 0 -134 49l14 16q51 -45 120 -45t120 45l14 -16q-59 -49 -134 -49zM852 977q76 0 135 -49l-16 -17q-51 45 -119 45t-119 -45l-16 17q59 49 135 49zM853 1028q95 0 167 -61l-14 -17q-68 57 -154 57t-154 -57l-14 15
q74 63 169 63zM1114 759q0 -95 -57 -165l-15 14q51 68 52 152q0 84 -54 153l17 15q57 -74 57 -169zM590 761q0 95 57 165l15 -15q-52 -67 -52 -151t54 -154l-17 -14q-57 74 -57 169zM850 492q-96 0 -168 61l14 16q72 -57 157 -57t153 57l14 -14q-74 -63 -170 -63zM851 1092
q120 0 210 -80l-12 -15q-84 74 -195 74t-199 -74l-14 17q90 78 210 78zM526 761q0 118 74 208l14 -15q-68 -88 -68 -194t68 -195l-16 -14q-72 92 -72 210zM852 428q-117 0 -211 78l14 16q88 -74 197 -74t197 74l12 -16q-92 -78 -209 -78zM1178 761q0 -118 -72 -210l-16 14
q68 88 68 196t-71 193l17 15q74 -90 74 -208zM854 348q-150 0 -266 101l14 14q106 -94 250 -94t248 94l14 -17q-110 -98 -260 -98zM449 760q0 147 92 262l16 -14q-88 -109 -88 -248t88 -248l-16 -14q-92 115 -92 262zM1235 760q0 139 -88 248l16 14q92 -115 92 -262
t-92 -262l-16 14q88 109 88 248zM852 1171q152 0 262 -100l-4 -2l-4 -8l-4 -4q-106 94 -250 94t-248 -94l-14 16q110 98 262 98zM350 760q0 184 115 327l16 -14q-111 -137 -111 -315t111 -312l-14 -14q-117 144 -117 328zM854 1251q-180 0 -315 -118l-15 14q140 125 328 125
t330 -125l-15 -17q-133 121 -313 121zM1354 760q0 -188 -117 -328q-6 4 -16 14q113 136 113 316t-113 311l16 14q117 -139 117 -327zM853 248q-189 0 -331 125l15 16q133 -121 315 -121t313 121l15 -16q-138 -125 -327 -125zM1456 760q0 224 -143 395l16 14
q147 -175 147 -409t-147 -410l-14 12q141 174 141 398zM248 759q0 -226 141 -397l-14 -14q-147 180 -147 412t145 409l16 -14q-141 -170 -141 -396zM852 1397q234 0 412 -158l-15 -16q-166 153 -394 153t-400 -151l-15 14q178 158 412 158zM850 123q-236 0 -410 158l15 14
q172 -152 398 -152t394 152l15 -16q-176 -156 -412 -156zM74 759q0 292 184 513q6 -4 14 -12q-178 -217 -178 -500t180 -500l-16 -14q-184 221 -184 513zM1610 760q0 283 -180 500l16 14q184 -221 184 -513t-184 -515q-6 6 -16 14q180 217 180 500zM852 -35q-295 0 -516 199
l14 16q215 -194 501 -194t501 192l4 -2l8 -8l2 -4q-219 -199 -514 -199zM853 1534q-286 0 -501 -195l-14 17q219 198 514 198t516 -198l-14 -17q-215 195 -501 195z" />
    <glyph glyph-name="Omega" unicode="&#x2126;" horiz-adv-x="1703" 
d="M928 760q0 20 -10 41l12 10q14 -25 14 -51t-14 -51l-12 10q10 21 10 41zM760 760q0 26 14 51l12 -10q-10 -21 -10 -41t10 -41q-4 -4 -12 -10q-14 25 -14 51zM852 856q33 0 53 -18l-10 -13q-23 14 -47 14t-39 -14l-10 13q20 18 53 18zM853 664q-32 0 -56 18l12 12
q20 -14 45 -14t41 14q4 -4 10 -12q-20 -18 -52 -18zM851 895q44 0 79 -29l-12 -14q-29 25 -65 25t-67 -25l-14 14q35 29 79 29zM745 838l15 -15q-36 -65 0 -127l-15 -14q-25 35 -24 78q0 43 24 78zM853 625q-44 0 -83 28l14 15q35 -25 69 -25t65 25l14 -15q-35 -28 -79 -28z
M983 761q0 -44 -25 -79l-16 14q20 31 21 64q0 33 -21 63l16 15q25 -33 25 -77zM1022 760q0 -60 -35 -107q-6 8 -14 15q29 41 28 92q0 51 -28 90l14 14q35 -44 35 -104zM682 760q0 60 33 104l16 -14q-29 -41 -29 -90t29 -90l-16 -15q-33 45 -33 105zM852 936q62 0 106 -39
l-14 -16q-39 35 -92 35t-92 -35l-15 16q45 39 107 39zM853 584q-60 0 -110 39l15 16q45 -35 95 -35t91 35l14 -16q-45 -39 -105 -39zM1063 763q0 -73 -43 -136l-16 14q39 51 38 119q0 68 -38 119l14 14q45 -57 45 -130zM641 760q0 74 43 133l16 -14q-38 -51 -38 -118
t38 -118l-16 -16q-43 59 -43 133zM851 543q-75 0 -134 49l14 16q51 -45 120 -45t120 45l14 -16q-59 -49 -134 -49zM852 977q76 0 135 -49l-16 -17q-51 45 -119 45t-119 -45l-16 17q59 49 135 49zM853 1028q95 0 167 -61l-14 -17q-68 57 -154 57t-154 -57l-14 15
q74 63 169 63zM1114 759q0 -95 -57 -165l-15 14q51 68 52 152q0 84 -54 153l17 15q57 -74 57 -169zM590 761q0 95 57 165l15 -15q-52 -67 -52 -151t54 -154l-17 -14q-57 74 -57 169zM850 492q-96 0 -168 61l14 16q72 -57 157 -57t153 57l14 -14q-74 -63 -170 -63zM851 1092
q120 0 210 -80l-12 -15q-84 74 -195 74t-199 -74l-14 17q90 78 210 78zM526 761q0 118 74 208l14 -15q-68 -88 -68 -194t68 -195l-16 -14q-72 92 -72 210zM852 428q-117 0 -211 78l14 16q88 -74 197 -74t197 74l12 -16q-92 -78 -209 -78zM1178 761q0 -118 -72 -210l-16 14
q68 88 68 196t-71 193l17 15q74 -90 74 -208zM854 348q-150 0 -266 101l14 14q106 -94 250 -94t248 94l14 -17q-110 -98 -260 -98zM449 760q0 147 92 262l16 -14q-88 -109 -88 -248t88 -248l-16 -14q-92 115 -92 262zM1235 760q0 139 -88 248l16 14q92 -115 92 -262
t-92 -262l-16 14q88 109 88 248zM852 1171q152 0 262 -100l-4 -2l-4 -8l-4 -4q-106 94 -250 94t-248 -94l-14 16q110 98 262 98zM350 760q0 184 115 327l16 -14q-111 -137 -111 -315t111 -312l-14 -14q-117 144 -117 328zM854 1251q-180 0 -315 -118l-15 14q140 125 328 125
t330 -125l-15 -17q-133 121 -313 121zM1354 760q0 -188 -117 -328q-6 4 -16 14q113 136 113 316t-113 311l16 14q117 -139 117 -327zM853 248q-189 0 -331 125l15 16q133 -121 315 -121t313 121l15 -16q-138 -125 -327 -125zM1456 760q0 224 -143 395l16 14
q147 -175 147 -409t-147 -410l-14 12q141 174 141 398zM248 759q0 -226 141 -397l-14 -14q-147 180 -147 412t145 409l16 -14q-141 -170 -141 -396zM852 1397q234 0 412 -158l-15 -16q-166 153 -394 153t-400 -151l-15 14q178 158 412 158zM850 123q-236 0 -410 158l15 14
q172 -152 398 -152t394 152l15 -16q-176 -156 -412 -156zM74 759q0 292 184 513q6 -4 14 -12q-178 -217 -178 -500t180 -500l-16 -14q-184 221 -184 513zM1610 760q0 283 -180 500l16 14q184 -221 184 -513t-184 -515q-6 6 -16 14q180 217 180 500zM852 -35q-295 0 -516 199
l14 16q215 -194 501 -194t501 192l4 -2l8 -8l2 -4q-219 -199 -514 -199zM853 1534q-286 0 -501 -195l-14 17q219 198 514 198t516 -198l-14 -17q-215 195 -501 195z" />
    <glyph glyph-name="pi" unicode="&#x3c0;" horiz-adv-x="1366" 
d="M551 754h192q88 0 125 41t37 140t-37 140t-125 41h-192v-362zM401 252v997h347q170 1 238 -73t67 -234q0 -160 -68 -236t-237 -77h-197v-377h-150zM1196 767q0 323 -114 502t-406 179t-403 -197q-101 -180 -101 -490t106 -500q106 -189 403 -189q298 0 413 195
q102 177 102 500zM664 -20q-158 0 -280 56q-311 143 -308 722q0 454 184 638q146 144 422 144q353 0 488 -223q126 -205 124 -559q0 -452 -187 -634q-149 -144 -443 -144z" />
    <glyph glyph-name="endash" unicode="&#x2013;" horiz-adv-x="1206" 
d="M72 553v209h1065v-209h-1065z" />
    <glyph glyph-name="emdash" unicode="&#x2014;" horiz-adv-x="1564" 
d="M72 553v209h1423v-209h-1423z" />
    <glyph glyph-name="quoteleft" unicode="&#x2018;" horiz-adv-x="471" 
d="M100 940v266q0 128 39 190t168 126l64 -119q-78 -43 -101 -73t-22 -87h123v-303h-271z" />
    <glyph glyph-name="quoteright" unicode="&#x2019;" horiz-adv-x="471" 
d="M100 1214v304h271v-265q0 -129 -39 -191t-166 -126l-66 119q78 43 101 73t22 86h-123z" />
    <glyph glyph-name="quotesinglbase" unicode="&#x201a;" horiz-adv-x="471" 
d="M100 0v303h271v-264q0 -131 -39 -194t-166 -124l-66 119q78 43 101 73t22 87h-123z" />
    <glyph glyph-name="quotedblleft" unicode="&#x201c;" horiz-adv-x="847" 
d="M483 952v265q0 127 37 185t164 120l64 -113q-76 -43 -100 -74t-23 -86h120v-297h-262zM100 952v265q0 127 38 184t165 121l62 -113q-76 -43 -99 -73t-22 -87h121v-297h-265z" />
    <glyph glyph-name="quotedblright" unicode="&#x201d;" horiz-adv-x="845" 
d="M481 1219v299h264v-265q1 -129 -37 -185t-165 -118l-60 113q74 41 97 71t22 85h-121zM100 1219v299h265v-265q0 -127 -38 -185t-165 -118l-62 113q76 41 99 71t22 85h-121z" />
    <glyph glyph-name="quotedblbase" unicode="&#x201e;" horiz-adv-x="845" 
d="M481 4v299h264v-264q1 -129 -37 -187t-165 -118l-60 112q74 41 97 72t22 86h-121zM100 4v299h265v-264q0 -129 -38 -187t-165 -118l-62 112q74 41 98 72t23 86h-121z" />
    <glyph glyph-name="dagger" unicode="&#x2020;" horiz-adv-x="972" 
d="M373 -324v1229h-289v213h289v457h227v-457h289v-213h-289v-1229h-227z" />
    <glyph glyph-name="daggerdbl" unicode="&#x2021;" horiz-adv-x="972" 
d="M373 -324v476h-289v213h289v544h-289v213h289v453h227v-453h289v-213h-289v-544h289v-213h-289v-476h-227z" />
    <glyph glyph-name="bullet" unicode="&#x2022;" horiz-adv-x="634" 
d="M154 424v397h325v-397h-325z" />
    <glyph glyph-name="ellipsis" unicode="&#x2026;" horiz-adv-x="1349" 
d="M979 0v293h268v-293h-268zM541 0v293h268v-293h-268zM100 0v293h271v-293h-271z" />
    <glyph glyph-name="perthousand" unicode="&#x2030;" horiz-adv-x="2811" 
d="M2382 160q90 0 127 68t37 241q0 174 -37 243q-37 68 -127 68t-128 -68t-38 -242t38 -242t128 -68zM2380 -14q-190 0 -280 112q-89 113 -89 377t90 378q89 114 279 114t280 -114t90 -378q0 -265 -90 -377t-280 -112zM557 0l676 1518h215l-678 -1518h-213zM1405 470
q0 -174 38 -242t127 -68t128 68t39 242q0 173 -39 242q-39 68 -128 68t-127 -68t-38 -242zM1569 -14q-190 0 -280 112q-89 113 -89 377t90 378t280 114t279 -114q90 -114 90 -378q0 -265 -90 -377t-280 -112zM432 727q90 0 127 68q37 67 37 241t-37 243t-127 69t-127 -69
t-37 -243t37 -242t127 -67zM803 1042q1 -264 -91 -376t-281 -113q-189 0 -279 113q-90 112 -90 376t90 377t279 113t281 -113t91 -377z" />
    <glyph glyph-name="guilsinglleft" unicode="&#x2039;" horiz-adv-x="772" 
d="M385 0l-250 571l250 574h209l-234 -574l234 -571h-209z" />
    <glyph glyph-name="guilsinglright" unicode="&#x203a;" horiz-adv-x="772" 
d="M178 0l234 573l-234 572h209l250 -572l-250 -573h-209z" />
    <glyph glyph-name="fraction" unicode="&#x2044;" horiz-adv-x="892" 
d="M6 0l674 1518h207l-676 -1518h-205z" />
    <glyph glyph-name="fraction" unicode="&#x2215;" horiz-adv-x="892" 
d="M6 0l674 1518h207l-676 -1518h-205z" />
    <glyph glyph-name="Euro" unicode="&#x20ac;" horiz-adv-x="1175" 
d="M53 825v189h199q27 274 139 397q113 123 345 123t376 -88l-108 -193q-118 61 -252 61t-194 -71q-60 -72 -77 -229h402v-189h-412v-123h412v-188h-402q17 -168 77 -244t186 -76t262 70l104 -182q-172 -98 -394 -98t-332 125t-134 405h-197v188h189v123h-189z" />
    <glyph glyph-name="trademark" unicode="&#x2122;" horiz-adv-x="1800" 
d="M322 561v799h-250v158h676v-158h-252v-799h-174zM807 561v957h192l213 -678l211 678h195v-957h-166v621l-188 -621h-111l-188 621v-621h-158z" />
    <glyph glyph-name="partialdiff" unicode="&#x2202;" horiz-adv-x="1703" 
d="M928 760q0 20 -10 41l12 10q14 -25 14 -51t-14 -51l-12 10q10 21 10 41zM760 760q0 26 14 51l12 -10q-10 -21 -10 -41t10 -41q-4 -4 -12 -10q-14 25 -14 51zM852 856q33 0 53 -18l-10 -13q-23 14 -47 14t-39 -14l-10 13q20 18 53 18zM853 664q-32 0 -56 18l12 12
q20 -14 45 -14t41 14q4 -4 10 -12q-20 -18 -52 -18zM851 895q44 0 79 -29l-12 -14q-29 25 -65 25t-67 -25l-14 14q35 29 79 29zM745 838l15 -15q-36 -65 0 -127l-15 -14q-25 35 -24 78q0 43 24 78zM853 625q-44 0 -83 28l14 15q35 -25 69 -25t65 25l14 -15q-35 -28 -79 -28z
M983 761q0 -44 -25 -79l-16 14q20 31 21 64q0 33 -21 63l16 15q25 -33 25 -77zM1022 760q0 -60 -35 -107q-6 8 -14 15q29 41 28 92q0 51 -28 90l14 14q35 -44 35 -104zM682 760q0 60 33 104l16 -14q-29 -41 -29 -90t29 -90l-16 -15q-33 45 -33 105zM852 936q62 0 106 -39
l-14 -16q-39 35 -92 35t-92 -35l-15 16q45 39 107 39zM853 584q-60 0 -110 39l15 16q45 -35 95 -35t91 35l14 -16q-45 -39 -105 -39zM1063 763q0 -73 -43 -136l-16 14q39 51 38 119q0 68 -38 119l14 14q45 -57 45 -130zM641 760q0 74 43 133l16 -14q-38 -51 -38 -118
t38 -118l-16 -16q-43 59 -43 133zM851 543q-75 0 -134 49l14 16q51 -45 120 -45t120 45l14 -16q-59 -49 -134 -49zM852 977q76 0 135 -49l-16 -17q-51 45 -119 45t-119 -45l-16 17q59 49 135 49zM853 1028q95 0 167 -61l-14 -17q-68 57 -154 57t-154 -57l-14 15
q74 63 169 63zM1114 759q0 -95 -57 -165l-15 14q51 68 52 152q0 84 -54 153l17 15q57 -74 57 -169zM590 761q0 95 57 165l15 -15q-52 -67 -52 -151t54 -154l-17 -14q-57 74 -57 169zM850 492q-96 0 -168 61l14 16q72 -57 157 -57t153 57l14 -14q-74 -63 -170 -63zM851 1092
q120 0 210 -80l-12 -15q-84 74 -195 74t-199 -74l-14 17q90 78 210 78zM526 761q0 118 74 208l14 -15q-68 -88 -68 -194t68 -195l-16 -14q-72 92 -72 210zM852 428q-117 0 -211 78l14 16q88 -74 197 -74t197 74l12 -16q-92 -78 -209 -78zM1178 761q0 -118 -72 -210l-16 14
q68 88 68 196t-71 193l17 15q74 -90 74 -208zM854 348q-150 0 -266 101l14 14q106 -94 250 -94t248 94l14 -17q-110 -98 -260 -98zM449 760q0 147 92 262l16 -14q-88 -109 -88 -248t88 -248l-16 -14q-92 115 -92 262zM1235 760q0 139 -88 248l16 14q92 -115 92 -262
t-92 -262l-16 14q88 109 88 248zM852 1171q152 0 262 -100l-4 -2l-4 -8l-4 -4q-106 94 -250 94t-248 -94l-14 16q110 98 262 98zM350 760q0 184 115 327l16 -14q-111 -137 -111 -315t111 -312l-14 -14q-117 144 -117 328zM854 1251q-180 0 -315 -118l-15 14q140 125 328 125
t330 -125l-15 -17q-133 121 -313 121zM1354 760q0 -188 -117 -328q-6 4 -16 14q113 136 113 316t-113 311l16 14q117 -139 117 -327zM853 248q-189 0 -331 125l15 16q133 -121 315 -121t313 121l15 -16q-138 -125 -327 -125zM1456 760q0 224 -143 395l16 14
q147 -175 147 -409t-147 -410l-14 12q141 174 141 398zM248 759q0 -226 141 -397l-14 -14q-147 180 -147 412t145 409l16 -14q-141 -170 -141 -396zM852 1397q234 0 412 -158l-15 -16q-166 153 -394 153t-400 -151l-15 14q178 158 412 158zM850 123q-236 0 -410 158l15 14
q172 -152 398 -152t394 152l15 -16q-176 -156 -412 -156zM74 759q0 292 184 513q6 -4 14 -12q-178 -217 -178 -500t180 -500l-16 -14q-184 221 -184 513zM1610 760q0 283 -180 500l16 14q184 -221 184 -513t-184 -515q-6 6 -16 14q180 217 180 500zM852 -35q-295 0 -516 199
l14 16q215 -194 501 -194t501 192l4 -2l8 -8l2 -4q-219 -199 -514 -199zM853 1534q-286 0 -501 -195l-14 17q219 198 514 198t516 -198l-14 -17q-215 195 -501 195z" />
    <glyph glyph-name="product" unicode="&#x220f;" horiz-adv-x="1703" 
d="M928 760q0 20 -10 41l12 10q14 -25 14 -51t-14 -51l-12 10q10 21 10 41zM760 760q0 26 14 51l12 -10q-10 -21 -10 -41t10 -41q-4 -4 -12 -10q-14 25 -14 51zM852 856q33 0 53 -18l-10 -13q-23 14 -47 14t-39 -14l-10 13q20 18 53 18zM853 664q-32 0 -56 18l12 12
q20 -14 45 -14t41 14q4 -4 10 -12q-20 -18 -52 -18zM851 895q44 0 79 -29l-12 -14q-29 25 -65 25t-67 -25l-14 14q35 29 79 29zM745 838l15 -15q-36 -65 0 -127l-15 -14q-25 35 -24 78q0 43 24 78zM853 625q-44 0 -83 28l14 15q35 -25 69 -25t65 25l14 -15q-35 -28 -79 -28z
M983 761q0 -44 -25 -79l-16 14q20 31 21 64q0 33 -21 63l16 15q25 -33 25 -77zM1022 760q0 -60 -35 -107q-6 8 -14 15q29 41 28 92q0 51 -28 90l14 14q35 -44 35 -104zM682 760q0 60 33 104l16 -14q-29 -41 -29 -90t29 -90l-16 -15q-33 45 -33 105zM852 936q62 0 106 -39
l-14 -16q-39 35 -92 35t-92 -35l-15 16q45 39 107 39zM853 584q-60 0 -110 39l15 16q45 -35 95 -35t91 35l14 -16q-45 -39 -105 -39zM1063 763q0 -73 -43 -136l-16 14q39 51 38 119q0 68 -38 119l14 14q45 -57 45 -130zM641 760q0 74 43 133l16 -14q-38 -51 -38 -118
t38 -118l-16 -16q-43 59 -43 133zM851 543q-75 0 -134 49l14 16q51 -45 120 -45t120 45l14 -16q-59 -49 -134 -49zM852 977q76 0 135 -49l-16 -17q-51 45 -119 45t-119 -45l-16 17q59 49 135 49zM853 1028q95 0 167 -61l-14 -17q-68 57 -154 57t-154 -57l-14 15
q74 63 169 63zM1114 759q0 -95 -57 -165l-15 14q51 68 52 152q0 84 -54 153l17 15q57 -74 57 -169zM590 761q0 95 57 165l15 -15q-52 -67 -52 -151t54 -154l-17 -14q-57 74 -57 169zM850 492q-96 0 -168 61l14 16q72 -57 157 -57t153 57l14 -14q-74 -63 -170 -63zM851 1092
q120 0 210 -80l-12 -15q-84 74 -195 74t-199 -74l-14 17q90 78 210 78zM526 761q0 118 74 208l14 -15q-68 -88 -68 -194t68 -195l-16 -14q-72 92 -72 210zM852 428q-117 0 -211 78l14 16q88 -74 197 -74t197 74l12 -16q-92 -78 -209 -78zM1178 761q0 -118 -72 -210l-16 14
q68 88 68 196t-71 193l17 15q74 -90 74 -208zM854 348q-150 0 -266 101l14 14q106 -94 250 -94t248 94l14 -17q-110 -98 -260 -98zM449 760q0 147 92 262l16 -14q-88 -109 -88 -248t88 -248l-16 -14q-92 115 -92 262zM1235 760q0 139 -88 248l16 14q92 -115 92 -262
t-92 -262l-16 14q88 109 88 248zM852 1171q152 0 262 -100l-4 -2l-4 -8l-4 -4q-106 94 -250 94t-248 -94l-14 16q110 98 262 98zM350 760q0 184 115 327l16 -14q-111 -137 -111 -315t111 -312l-14 -14q-117 144 -117 328zM854 1251q-180 0 -315 -118l-15 14q140 125 328 125
t330 -125l-15 -17q-133 121 -313 121zM1354 760q0 -188 -117 -328q-6 4 -16 14q113 136 113 316t-113 311l16 14q117 -139 117 -327zM853 248q-189 0 -331 125l15 16q133 -121 315 -121t313 121l15 -16q-138 -125 -327 -125zM1456 760q0 224 -143 395l16 14
q147 -175 147 -409t-147 -410l-14 12q141 174 141 398zM248 759q0 -226 141 -397l-14 -14q-147 180 -147 412t145 409l16 -14q-141 -170 -141 -396zM852 1397q234 0 412 -158l-15 -16q-166 153 -394 153t-400 -151l-15 14q178 158 412 158zM850 123q-236 0 -410 158l15 14
q172 -152 398 -152t394 152l15 -16q-176 -156 -412 -156zM74 759q0 292 184 513q6 -4 14 -12q-178 -217 -178 -500t180 -500l-16 -14q-184 221 -184 513zM1610 760q0 283 -180 500l16 14q184 -221 184 -513t-184 -515q-6 6 -16 14q180 217 180 500zM852 -35q-295 0 -516 199
l14 16q215 -194 501 -194t501 192l4 -2l8 -8l2 -4q-219 -199 -514 -199zM853 1534q-286 0 -501 -195l-14 17q219 198 514 198t516 -198l-14 -17q-215 195 -501 195z" />
    <glyph glyph-name="summation" unicode="&#x2211;" horiz-adv-x="1703" 
d="M928 760q0 20 -10 41l12 10q14 -25 14 -51t-14 -51l-12 10q10 21 10 41zM760 760q0 26 14 51l12 -10q-10 -21 -10 -41t10 -41q-4 -4 -12 -10q-14 25 -14 51zM852 856q33 0 53 -18l-10 -13q-23 14 -47 14t-39 -14l-10 13q20 18 53 18zM853 664q-32 0 -56 18l12 12
q20 -14 45 -14t41 14q4 -4 10 -12q-20 -18 -52 -18zM851 895q44 0 79 -29l-12 -14q-29 25 -65 25t-67 -25l-14 14q35 29 79 29zM745 838l15 -15q-36 -65 0 -127l-15 -14q-25 35 -24 78q0 43 24 78zM853 625q-44 0 -83 28l14 15q35 -25 69 -25t65 25l14 -15q-35 -28 -79 -28z
M983 761q0 -44 -25 -79l-16 14q20 31 21 64q0 33 -21 63l16 15q25 -33 25 -77zM1022 760q0 -60 -35 -107q-6 8 -14 15q29 41 28 92q0 51 -28 90l14 14q35 -44 35 -104zM682 760q0 60 33 104l16 -14q-29 -41 -29 -90t29 -90l-16 -15q-33 45 -33 105zM852 936q62 0 106 -39
l-14 -16q-39 35 -92 35t-92 -35l-15 16q45 39 107 39zM853 584q-60 0 -110 39l15 16q45 -35 95 -35t91 35l14 -16q-45 -39 -105 -39zM1063 763q0 -73 -43 -136l-16 14q39 51 38 119q0 68 -38 119l14 14q45 -57 45 -130zM641 760q0 74 43 133l16 -14q-38 -51 -38 -118
t38 -118l-16 -16q-43 59 -43 133zM851 543q-75 0 -134 49l14 16q51 -45 120 -45t120 45l14 -16q-59 -49 -134 -49zM852 977q76 0 135 -49l-16 -17q-51 45 -119 45t-119 -45l-16 17q59 49 135 49zM853 1028q95 0 167 -61l-14 -17q-68 57 -154 57t-154 -57l-14 15
q74 63 169 63zM1114 759q0 -95 -57 -165l-15 14q51 68 52 152q0 84 -54 153l17 15q57 -74 57 -169zM590 761q0 95 57 165l15 -15q-52 -67 -52 -151t54 -154l-17 -14q-57 74 -57 169zM850 492q-96 0 -168 61l14 16q72 -57 157 -57t153 57l14 -14q-74 -63 -170 -63zM851 1092
q120 0 210 -80l-12 -15q-84 74 -195 74t-199 -74l-14 17q90 78 210 78zM526 761q0 118 74 208l14 -15q-68 -88 -68 -194t68 -195l-16 -14q-72 92 -72 210zM852 428q-117 0 -211 78l14 16q88 -74 197 -74t197 74l12 -16q-92 -78 -209 -78zM1178 761q0 -118 -72 -210l-16 14
q68 88 68 196t-71 193l17 15q74 -90 74 -208zM854 348q-150 0 -266 101l14 14q106 -94 250 -94t248 94l14 -17q-110 -98 -260 -98zM449 760q0 147 92 262l16 -14q-88 -109 -88 -248t88 -248l-16 -14q-92 115 -92 262zM1235 760q0 139 -88 248l16 14q92 -115 92 -262
t-92 -262l-16 14q88 109 88 248zM852 1171q152 0 262 -100l-4 -2l-4 -8l-4 -4q-106 94 -250 94t-248 -94l-14 16q110 98 262 98zM350 760q0 184 115 327l16 -14q-111 -137 -111 -315t111 -312l-14 -14q-117 144 -117 328zM854 1251q-180 0 -315 -118l-15 14q140 125 328 125
t330 -125l-15 -17q-133 121 -313 121zM1354 760q0 -188 -117 -328q-6 4 -16 14q113 136 113 316t-113 311l16 14q117 -139 117 -327zM853 248q-189 0 -331 125l15 16q133 -121 315 -121t313 121l15 -16q-138 -125 -327 -125zM1456 760q0 224 -143 395l16 14
q147 -175 147 -409t-147 -410l-14 12q141 174 141 398zM248 759q0 -226 141 -397l-14 -14q-147 180 -147 412t145 409l16 -14q-141 -170 -141 -396zM852 1397q234 0 412 -158l-15 -16q-166 153 -394 153t-400 -151l-15 14q178 158 412 158zM850 123q-236 0 -410 158l15 14
q172 -152 398 -152t394 152l15 -16q-176 -156 -412 -156zM74 759q0 292 184 513q6 -4 14 -12q-178 -217 -178 -500t180 -500l-16 -14q-184 221 -184 513zM1610 760q0 283 -180 500l16 14q184 -221 184 -513t-184 -515q-6 6 -16 14q180 217 180 500zM852 -35q-295 0 -516 199
l14 16q215 -194 501 -194t501 192l4 -2l8 -8l2 -4q-219 -199 -514 -199zM853 1534q-286 0 -501 -195l-14 17q219 198 514 198t516 -198l-14 -17q-215 195 -501 195z" />
    <glyph glyph-name="minus" unicode="&#x2212;" horiz-adv-x="1187" 
d="M168 621v200h852v-200h-852z" />
    <glyph glyph-name="radical" unicode="&#x221a;" horiz-adv-x="1132" 
d="M352 -8l-280 885h241l166 -576l361 1217h225l-473 -1526h-240z" />
    <glyph glyph-name="infinity" unicode="&#x221e;" horiz-adv-x="1705" 
d="M1358 1272v246h231v-246h-231zM1360 0v1145h229v-1145h-229zM786 0v944h-342v-944h-229v944h-182v201h182v104q0 328 350 328h99v-201h-78q-84 0 -113 -36t-29 -115v-80h342v104q0 328 353 328h96v-201h-78q-84 0 -113 -36t-28 -115v-80h219v-201h-219v-944h-230z" />
    <glyph glyph-name="integral" unicode="&#x222b;" horiz-adv-x="1703" 
d="M928 760q0 20 -10 41l12 10q14 -25 14 -51t-14 -51l-12 10q10 21 10 41zM760 760q0 26 14 51l12 -10q-10 -21 -10 -41t10 -41q-4 -4 -12 -10q-14 25 -14 51zM852 856q33 0 53 -18l-10 -13q-23 14 -47 14t-39 -14l-10 13q20 18 53 18zM853 664q-32 0 -56 18l12 12
q20 -14 45 -14t41 14q4 -4 10 -12q-20 -18 -52 -18zM851 895q44 0 79 -29l-12 -14q-29 25 -65 25t-67 -25l-14 14q35 29 79 29zM745 838l15 -15q-36 -65 0 -127l-15 -14q-25 35 -24 78q0 43 24 78zM853 625q-44 0 -83 28l14 15q35 -25 69 -25t65 25l14 -15q-35 -28 -79 -28z
M983 761q0 -44 -25 -79l-16 14q20 31 21 64q0 33 -21 63l16 15q25 -33 25 -77zM1022 760q0 -60 -35 -107q-6 8 -14 15q29 41 28 92q0 51 -28 90l14 14q35 -44 35 -104zM682 760q0 60 33 104l16 -14q-29 -41 -29 -90t29 -90l-16 -15q-33 45 -33 105zM852 936q62 0 106 -39
l-14 -16q-39 35 -92 35t-92 -35l-15 16q45 39 107 39zM853 584q-60 0 -110 39l15 16q45 -35 95 -35t91 35l14 -16q-45 -39 -105 -39zM1063 763q0 -73 -43 -136l-16 14q39 51 38 119q0 68 -38 119l14 14q45 -57 45 -130zM641 760q0 74 43 133l16 -14q-38 -51 -38 -118
t38 -118l-16 -16q-43 59 -43 133zM851 543q-75 0 -134 49l14 16q51 -45 120 -45t120 45l14 -16q-59 -49 -134 -49zM852 977q76 0 135 -49l-16 -17q-51 45 -119 45t-119 -45l-16 17q59 49 135 49zM853 1028q95 0 167 -61l-14 -17q-68 57 -154 57t-154 -57l-14 15
q74 63 169 63zM1114 759q0 -95 -57 -165l-15 14q51 68 52 152q0 84 -54 153l17 15q57 -74 57 -169zM590 761q0 95 57 165l15 -15q-52 -67 -52 -151t54 -154l-17 -14q-57 74 -57 169zM850 492q-96 0 -168 61l14 16q72 -57 157 -57t153 57l14 -14q-74 -63 -170 -63zM851 1092
q120 0 210 -80l-12 -15q-84 74 -195 74t-199 -74l-14 17q90 78 210 78zM526 761q0 118 74 208l14 -15q-68 -88 -68 -194t68 -195l-16 -14q-72 92 -72 210zM852 428q-117 0 -211 78l14 16q88 -74 197 -74t197 74l12 -16q-92 -78 -209 -78zM1178 761q0 -118 -72 -210l-16 14
q68 88 68 196t-71 193l17 15q74 -90 74 -208zM854 348q-150 0 -266 101l14 14q106 -94 250 -94t248 94l14 -17q-110 -98 -260 -98zM449 760q0 147 92 262l16 -14q-88 -109 -88 -248t88 -248l-16 -14q-92 115 -92 262zM1235 760q0 139 -88 248l16 14q92 -115 92 -262
t-92 -262l-16 14q88 109 88 248zM852 1171q152 0 262 -100l-4 -2l-4 -8l-4 -4q-106 94 -250 94t-248 -94l-14 16q110 98 262 98zM350 760q0 184 115 327l16 -14q-111 -137 -111 -315t111 -312l-14 -14q-117 144 -117 328zM854 1251q-180 0 -315 -118l-15 14q140 125 328 125
t330 -125l-15 -17q-133 121 -313 121zM1354 760q0 -188 -117 -328q-6 4 -16 14q113 136 113 316t-113 311l16 14q117 -139 117 -327zM853 248q-189 0 -331 125l15 16q133 -121 315 -121t313 121l15 -16q-138 -125 -327 -125zM1456 760q0 224 -143 395l16 14
q147 -175 147 -409t-147 -410l-14 12q141 174 141 398zM248 759q0 -226 141 -397l-14 -14q-147 180 -147 412t145 409l16 -14q-141 -170 -141 -396zM852 1397q234 0 412 -158l-15 -16q-166 153 -394 153t-400 -151l-15 14q178 158 412 158zM850 123q-236 0 -410 158l15 14
q172 -152 398 -152t394 152l15 -16q-176 -156 -412 -156zM74 759q0 292 184 513q6 -4 14 -12q-178 -217 -178 -500t180 -500l-16 -14q-184 221 -184 513zM1610 760q0 283 -180 500l16 14q184 -221 184 -513t-184 -515q-6 6 -16 14q180 217 180 500zM852 -35q-295 0 -516 199
l14 16q215 -194 501 -194t501 192l4 -2l8 -8l2 -4q-219 -199 -514 -199zM853 1534q-286 0 -501 -195l-14 17q219 198 514 198t516 -198l-14 -17q-215 195 -501 195z" />
    <glyph glyph-name="approxequal" unicode="&#x2248;" horiz-adv-x="1187" 
d="M1055 565q-99 -196 -259 -196q-84 0 -204 41t-172 41q-72 -1 -127 -91l-160 91q96 193 266 192q74 0 197 -42t167 -42t73 23t63 73zM776 987q58 0 123 94l156 -90q-98 -195 -267 -194q-76 0 -196 41q-120 40 -182 40q-60 0 -117 -90l-160 91q98 193 266 192q74 0 197 -42
q122 -42 180 -42z" />
    <glyph glyph-name="notequal" unicode="&#x2260;" horiz-adv-x="1296" 
d="M786 0v944h-342v-944h-229v944h-182v201h182v104q0 328 350 328h99v-201h-78q-84 0 -113 -36t-29 -115v-80h342v104q0 328 353 328q115 0 141 -2v-199h-123q-84 0 -113 -36t-28 -115v-80h264v-201h-264v-944h-230z" />
    <glyph glyph-name="lessequal" unicode="&#x2264;" horiz-adv-x="1187" 
d="M178 23v200h754l-754 416v162l762 418v-222l-526 -276l526 -279v-419h-762z" />
    <glyph glyph-name="greaterequal" unicode="&#x2265;" horiz-adv-x="1187" 
d="M248 23v419l524 279l-524 276v222l764 -418v-162l-758 -416h758v-200h-764z" />
    <glyph glyph-name="lozenge" unicode="&#x25ca;" horiz-adv-x="1382" 
d="M33 944v201h182v104q0 328 350 328h99v-201h-78q-84 0 -113 -36t-29 -115v-80h377l37 289l184 39v-328h267v-201h-267v-600q0 -78 26 -111t112 -32h129v-201q-117 -6 -156 -6q-199 0 -269 74t-71 251v625h-369v-944h-229v944h-182z" />
    <glyph glyph-name="apple" unicode="&#xf8ff;" horiz-adv-x="1703" 
d="M928 760q0 20 -10 41l12 10q14 -25 14 -51t-14 -51l-12 10q10 21 10 41zM760 760q0 26 14 51l12 -10q-10 -21 -10 -41t10 -41q-4 -4 -12 -10q-14 25 -14 51zM852 856q33 0 53 -18l-10 -13q-23 14 -47 14t-39 -14l-10 13q20 18 53 18zM853 664q-32 0 -56 18l12 12
q20 -14 45 -14t41 14q4 -4 10 -12q-20 -18 -52 -18zM851 895q44 0 79 -29l-12 -14q-29 25 -65 25t-67 -25l-14 14q35 29 79 29zM745 838l15 -15q-36 -65 0 -127l-15 -14q-25 35 -24 78q0 43 24 78zM853 625q-44 0 -83 28l14 15q35 -25 69 -25t65 25l14 -15q-35 -28 -79 -28z
M983 761q0 -44 -25 -79l-16 14q20 31 21 64q0 33 -21 63l16 15q25 -33 25 -77zM1022 760q0 -60 -35 -107q-6 8 -14 15q29 41 28 92q0 51 -28 90l14 14q35 -44 35 -104zM682 760q0 60 33 104l16 -14q-29 -41 -29 -90t29 -90l-16 -15q-33 45 -33 105zM852 936q62 0 106 -39
l-14 -16q-39 35 -92 35t-92 -35l-15 16q45 39 107 39zM853 584q-60 0 -110 39l15 16q45 -35 95 -35t91 35l14 -16q-45 -39 -105 -39zM1063 763q0 -73 -43 -136l-16 14q39 51 38 119q0 68 -38 119l14 14q45 -57 45 -130zM641 760q0 74 43 133l16 -14q-38 -51 -38 -118
t38 -118l-16 -16q-43 59 -43 133zM851 543q-75 0 -134 49l14 16q51 -45 120 -45t120 45l14 -16q-59 -49 -134 -49zM852 977q76 0 135 -49l-16 -17q-51 45 -119 45t-119 -45l-16 17q59 49 135 49zM853 1028q95 0 167 -61l-14 -17q-68 57 -154 57t-154 -57l-14 15
q74 63 169 63zM1114 759q0 -95 -57 -165l-15 14q51 68 52 152q0 84 -54 153l17 15q57 -74 57 -169zM590 761q0 95 57 165l15 -15q-52 -67 -52 -151t54 -154l-17 -14q-57 74 -57 169zM850 492q-96 0 -168 61l14 16q72 -57 157 -57t153 57l14 -14q-74 -63 -170 -63zM851 1092
q120 0 210 -80l-12 -15q-84 74 -195 74t-199 -74l-14 17q90 78 210 78zM526 761q0 118 74 208l14 -15q-68 -88 -68 -194t68 -195l-16 -14q-72 92 -72 210zM852 428q-117 0 -211 78l14 16q88 -74 197 -74t197 74l12 -16q-92 -78 -209 -78zM1178 761q0 -118 -72 -210l-16 14
q68 88 68 196t-71 193l17 15q74 -90 74 -208zM854 348q-150 0 -266 101l14 14q106 -94 250 -94t248 94l14 -17q-110 -98 -260 -98zM449 760q0 147 92 262l16 -14q-88 -109 -88 -248t88 -248l-16 -14q-92 115 -92 262zM1235 760q0 139 -88 248l16 14q92 -115 92 -262
t-92 -262l-16 14q88 109 88 248zM852 1171q152 0 262 -100l-4 -2l-4 -8l-4 -4q-106 94 -250 94t-248 -94l-14 16q110 98 262 98zM350 760q0 184 115 327l16 -14q-111 -137 -111 -315t111 -312l-14 -14q-117 144 -117 328zM854 1251q-180 0 -315 -118l-15 14q140 125 328 125
t330 -125l-15 -17q-133 121 -313 121zM1354 760q0 -188 -117 -328q-6 4 -16 14q113 136 113 316t-113 311l16 14q117 -139 117 -327zM853 248q-189 0 -331 125l15 16q133 -121 315 -121t313 121l15 -16q-138 -125 -327 -125zM1456 760q0 224 -143 395l16 14
q147 -175 147 -409t-147 -410l-14 12q141 174 141 398zM248 759q0 -226 141 -397l-14 -14q-147 180 -147 412t145 409l16 -14q-141 -170 -141 -396zM852 1397q234 0 412 -158l-15 -16q-166 153 -394 153t-400 -151l-15 14q178 158 412 158zM850 123q-236 0 -410 158l15 14
q172 -152 398 -152t394 152l15 -16q-176 -156 -412 -156zM74 759q0 292 184 513q6 -4 14 -12q-178 -217 -178 -500t180 -500l-16 -14q-184 221 -184 513zM1610 760q0 283 -180 500l16 14q184 -221 184 -513t-184 -515q-6 6 -16 14q180 217 180 500zM852 -35q-295 0 -516 199
l14 16q215 -194 501 -194t501 192l4 -2l8 -8l2 -4q-219 -199 -514 -199zM853 1534q-286 0 -501 -195l-14 17q219 198 514 198t516 -198l-14 -17q-215 195 -501 195z" />
    </font>
</defs>
</svg>
